<svg width="275" height="202" viewBox="0 0 275 202" fill="none" xmlns="http://www.w3.org/2000/svg">
<path d="M177.459 16.9672C177.459 16.9672 122.832 -33.2659 106.999 41.2232C106.999 41.2232 46.5878 34.9941 78.7203 89.4546C78.7203 89.4546 29.686 138.823 98.0464 150.804C98.0464 150.804 83.3764 217.487 160.473 185.405C160.473 185.405 204.385 228.575 228.724 164.604C228.724 164.604 272.999 177.503 256.996 116.314C256.996 116.314 307.64 70.2043 237.773 54.2125C237.823 54.2305 240.964 -11.2716 177.459 16.9672Z" fill="#FFB700"/>
<path d="M165.868 97.9883C160.179 97.5915 155.88 92.654 156.286 86.9401L157.752 66.3097C158.149 60.6206 163.086 56.3216 168.8 56.7275C174.489 57.1243 178.788 62.0617 178.382 67.7757L176.916 88.4061C176.494 94.0861 171.557 98.3851 165.868 97.9883Z" fill="white"/>
<path d="M204.528 100.711C198.839 100.315 194.54 95.3772 194.945 89.6632L196.411 69.0328C196.808 63.3438 201.746 59.0448 207.46 59.4506C213.149 59.8475 217.448 64.7849 217.042 70.4988L215.576 91.1292C215.179 96.8183 210.242 101.117 204.528 100.711Z" fill="white"/>
<circle cx="244.289" cy="184.777" r="8.76494" transform="rotate(2.88097 244.289 184.777)" fill="#FFB700"/>
<path d="M28.9137 104.304C30.2542 104.372 31.566 104.539 32.8425 104.798C35.5187 97.2796 39.6665 92.4521 44.086 92.6745C51.1377 93.0294 56.2106 106.106 55.4167 121.883C55.1891 126.404 54.5044 130.656 53.4773 134.414C51.483 147.54 39.826 157.278 26.2821 156.596C11.842 155.87 0.72504 143.575 1.45174 129.135C2.17843 114.694 14.4736 103.578 28.9137 104.304Z" fill="#FFB700"/>
<path d="M22.7668 81.6279C22.9103 79.51 25.68 78.813 26.8088 80.6107L27.4555 81.6407C27.9603 82.4446 28.9254 82.8321 29.846 82.6004L31.0254 82.3036C33.084 81.7856 34.6027 84.2044 33.2419 85.8334L32.4621 86.7668C31.8535 87.4953 31.7833 88.5329 32.2881 89.3369L32.9348 90.3668C34.0636 92.1645 32.2326 94.3564 30.2627 93.5655L29.1341 93.1124C28.2531 92.7587 27.2446 93.0125 26.636 93.7411L25.8563 94.6744C24.4954 96.3035 21.8449 95.2394 21.9884 93.1215L22.0706 91.9081C22.1347 90.961 21.5817 90.0803 20.7007 89.7266L19.5721 89.2735C17.6022 88.4826 17.7952 85.633 19.8538 85.115L21.0332 84.8182C21.9538 84.5865 22.6205 83.7884 22.6846 82.8413L22.7668 81.6279Z" fill="#FFEA00"/>
<path d="M42.4233 73.8061C43.2664 72.1793 45.6986 72.5818 45.9727 74.3934C46.0953 75.2036 46.7257 75.8428 47.5341 75.9765C49.3418 76.2756 49.7106 78.7132 48.0723 79.5337C47.3397 79.9007 46.9266 80.6977 47.0492 81.5079C47.3234 83.3195 45.1191 84.4235 43.8325 83.119C43.2571 82.5356 42.3714 82.3891 41.6388 82.756C40.0005 83.5766 38.2694 81.8213 39.1125 80.1946C39.4895 79.467 39.3552 78.5795 38.7798 77.9961C37.4932 76.6916 38.6275 74.5027 40.4352 74.8019C41.2436 74.9356 42.0463 74.5336 42.4233 73.8061Z" fill="#FFEA00"/>
</svg>
