<svg width="207" height="192" viewBox="0 0 207 192" fill="none" xmlns="http://www.w3.org/2000/svg">
<path d="M103.779 12.7083C103.779 12.7083 44.2488 -28.3098 39.116 45.6965C39.116 45.6965 -20.0037 47.9114 18.4042 96.0692C18.4042 96.0692 -22.1732 150.364 45.397 152.615C45.397 152.615 40.3236 218.933 110.323 177.492C110.323 177.492 158.556 213.157 173.325 148.138C173.325 148.138 217.788 154.553 194.022 97.7092C194.022 97.7092 236.596 46.3391 167.027 40.4243C167.077 40.4349 161.19 -23.1749 103.779 12.7083Z" fill="#FFB700"/>
<path d="M89.8972 125.15C84.3556 125.542 79.5367 121.365 79.1504 115.798L77.7562 95.6985C77.3646 90.1569 81.5419 85.338 87.1088 84.9517C92.6503 84.5601 97.4692 88.7374 97.8555 94.3043L99.2497 114.404C99.6161 119.94 95.4387 124.759 89.8972 125.15Z" fill="white"/>
<path d="M127.558 122.515C122.017 122.906 117.198 118.729 116.812 113.162L115.417 93.0627C115.026 87.5212 119.203 82.7023 124.77 82.316C130.311 81.9243 135.13 86.1017 135.517 91.6685L136.911 111.768C137.302 117.309 133.125 122.128 127.558 122.515Z" fill="white"/>
<circle cx="191.084" cy="165.482" r="8.53829" transform="rotate(-5.15168 191.084 165.482)" fill="#FFB700"/>
<circle cx="25.6552" cy="170.82" r="8.53829" transform="rotate(-5.15168 25.6552 170.82)" fill="#FFB700"/>
</svg>
