<svg width="241" height="199" viewBox="0 0 241 199" fill="none" xmlns="http://www.w3.org/2000/svg">
<path d="M148.25 18.0693C148.25 18.0693 96.9295 -33.2146 78.4411 38.9032C78.4411 38.9032 19.6847 30.3673 48.8616 84.8677C48.8616 84.8677 -1.03791 131.101 65.2497 145.577C65.2497 145.577 48.2144 210.117 124.823 181.908C124.823 181.908 165.964 225.858 192.335 164.359C192.335 164.359 235.058 178.755 221.91 118.337C221.91 118.337 273.249 75.3531 205.653 56.8975C205.701 56.9171 211.427 -6.93726 148.25 18.0693Z" fill="#FFB700"/>
<path d="M131.775 118.259C126.234 117.641 122.235 112.644 122.863 107.079L125.132 86.9867C125.751 81.4458 130.748 77.4469 136.313 78.0752C141.854 78.6937 145.853 83.691 145.224 89.2558L142.955 109.348C142.313 114.879 137.315 118.878 131.775 118.259Z" fill="white"/>
<path d="M169.426 122.487C163.885 121.869 159.886 116.872 160.515 111.307L162.784 91.2148C163.402 85.6739 168.399 81.675 173.964 82.3033C179.505 82.9217 183.504 87.919 182.876 93.4839L180.607 113.576C179.988 119.117 174.991 123.116 169.426 122.487Z" fill="white"/>
<circle cx="203.621" cy="184.34" r="8.56889" transform="rotate(-0.739275 203.621 184.34)" fill="#FFB700"/>
<circle cx="15.1603" cy="79.4271" r="12.8533" transform="rotate(-0.739275 15.1603 79.4271)" fill="#FFB700"/>
</svg>
