<svg width="243" height="240" viewBox="0 0 243 240" fill="none" xmlns="http://www.w3.org/2000/svg">
<path d="M131.165 41.8179C131.165 41.8179 80.665 -3.32439 67.1725 64.8607C67.1725 64.8607 11.9589 59.9524 41.9844 109.242C41.9844 109.242 -2.13141 154.928 60.4109 164.983C60.4109 164.983 47.8798 226.029 117.829 195.758C117.829 195.758 158.459 234.593 179.85 175.897C179.85 175.897 220.422 187.1 205.031 131.462C205.031 131.462 250.658 88.7304 186.689 75.0339C186.735 75.0497 188.759 15.2297 131.165 41.8179Z" fill="#FFB700"/>
<path d="M115.477 149.908C110.28 149.619 106.293 145.168 106.59 139.948L107.662 121.101C107.951 115.904 112.402 111.917 117.622 112.214C122.819 112.503 126.806 116.954 126.509 122.174L125.437 141.021C125.125 146.21 120.674 150.197 115.477 149.908Z" fill="white"/>
<path d="M150.794 151.896C145.597 151.607 141.61 147.156 141.907 141.936L142.979 123.089C143.268 117.892 147.719 113.905 152.939 114.202C158.136 114.491 162.123 118.942 161.826 124.162L160.754 143.009C160.465 148.206 156.014 152.193 150.794 151.896Z" fill="white"/>
<path d="M180.666 136.483L132.532 142.951L121.132 204.931L177.632 223.983L186.999 166.665L216.632 158.983L180.666 136.483Z" fill="url(#paint0_linear_387_803)"/>
<path d="M214.377 157.709L191.523 160.312C188.024 160.711 185.197 163.351 184.56 166.815L175.136 218.085C174.149 223.451 178.704 228.208 184.107 227.455L206.928 224.278C210.335 223.803 213.058 221.203 213.689 217.821L223.147 167.124C224.134 161.835 219.723 157.1 214.377 157.709Z" fill="black"/>
<path d="M214.628 162.331L210.088 163.004C208.438 163.248 207.112 164.491 206.763 166.123L205.501 172.015C204.911 174.77 207.279 177.256 210.06 176.799L214.59 176.056C216.209 175.79 217.501 174.564 217.851 172.962L219.122 167.142C219.719 164.408 217.396 161.922 214.628 162.331Z" fill="#FF7B00"/>
<circle cx="209.399" cy="172.396" r="3" fill="white"/>
<circle cx="215.399" cy="166.396" r="3" fill="white"/>
<circle cx="179.132" cy="196.483" r="13" fill="#FFB700"/>
<circle cx="222.132" cy="186.483" r="8" fill="#FFB700"/>
<defs>
<linearGradient id="paint0_linear_387_803" x1="144.566" y1="168.821" x2="190.485" y2="204.794" gradientUnits="userSpaceOnUse">
<stop stop-color="white" stop-opacity="0"/>
<stop offset="1" stop-color="white"/>
</linearGradient>
</defs>
</svg>
