<svg width="372" height="64" viewBox="0 0 372 64" fill="none" xmlns="http://www.w3.org/2000/svg">
<g clip-path="url(#clip0_411_1148)">
<path d="M0 16C0 7.16344 7.16344 0 16 0H356C364.837 0 372 7.16344 372 16V64H0V16Z" fill="#FFEA00" fill-opacity="0.12"/>
<g clip-path="url(#clip1_411_1148)">
<path d="M183.383 24.6369C178.55 26.8026 172.308 23.9079 170.209 19.0035C168.111 14.099 169.867 8.05842 173.728 4.42647C171.347 4.86715 168.763 4.0997 167.091 2.37359C165.385 0.682989 164.593 -1.89699 165.053 -4.30022C165.728 -7.78339 168.716 -10.2844 171.649 -12.2293C175.879 -14.9692 180.366 -17.1263 185.009 -18.594C187.759 -19.4945 190.62 -20.1551 193.487 -20.5386C193.66 -20.5776 193.798 -20.5811 193.971 -20.62C195.802 -20.839 197.669 -21.0243 199.54 -21.0709C199.54 -21.0709 199.609 -21.0726 199.679 -21.0744C201.411 -21.1176 203.18 -21.0577 204.951 -20.9286C207.347 -20.7457 209.747 -20.4243 212.152 -19.895C217.625 -18.6797 223.352 -16.9507 227.507 -12.9988C229.779 -10.837 231.482 -7.86381 231.283 -4.73915C231.084 -1.61449 228.385 1.36454 225.294 1.12967C227.984 6.1234 229.1 11.9883 228.409 17.621C227.975 21.0634 226.306 25.022 222.852 25.5241C220.365 25.8635 218.106 24.256 216.262 22.5689C216.144 28.9498 214.645 35.5732 210.502 40.4254C206.395 45.3114 199.217 47.9515 193.33 45.3947C191.472 44.5744 189.812 43.3333 188.356 41.9484C185.979 39.7546 183.868 37.1382 182.751 34.0464C181.67 30.9883 181.72 27.4514 183.383 24.6369Z" fill="#017B4E"/>
<path d="M205.935 -0.917799C202.454 -7.07033 200.791 -13.9961 199.575 -21.0371C201.307 -21.0803 203.077 -21.0205 204.848 -20.8913C207.697 -15.0697 209.963 -8.9908 211.575 -2.72232C211.961 -1.13744 212.185 0.902091 210.856 1.80183C210.003 2.34306 208.82 2.16459 207.904 1.56351C207.021 0.926924 206.478 0.00456252 205.935 -0.917799Z" fill="#026841"/>
<path d="M184.123 5.65759C182.612 4.8287 182.422 2.75366 182.449 1.08914C182.527 -5.53346 183.402 -12.1413 184.941 -18.5231C187.692 -19.4236 190.552 -20.0842 193.42 -20.4677C192.383 -13.4052 191.136 -6.40682 189.68 0.527473C189.37 1.99106 189.026 3.49016 188.084 4.62289C187.141 5.75562 185.459 6.38687 184.123 5.65759Z" fill="#026841"/>
<path d="M193.902 -20.5487C195.734 -20.7677 197.601 -20.9529 199.472 -20.9996C200.357 -14.6783 201.277 -8.39256 202.198 -2.03751C203.038 3.83428 203.851 10.0187 201.875 15.5794C201.291 17.1885 200.087 18.9517 198.419 18.7853C197.412 18.7065 196.595 17.9296 196.157 17.0393C195.719 16.149 195.59 15.1469 195.461 14.1449C194.03 2.63779 193.532 -8.99661 193.902 -20.5487Z" fill="#026841"/>
</g>
<path d="M83.9257 22.3082C80.9674 28.2452 75.7718 32.764 69.4819 34.8703C64.7651 36.4498 59.7227 36.5755 54.9918 35.2922C53.414 34.8642 51.8708 34.2796 50.3859 33.5398C44.4488 30.5815 39.9301 25.386 37.8238 19.096C35.7174 12.8061 36.196 5.93706 39.1543 3.34881e-06L61.54 11.1541L83.9257 22.3082Z" fill="#FB2B3A"/>
<path fill-rule="evenodd" clip-rule="evenodd" d="M83.9258 22.3085L70.3188 15.5286L47.9331 4.37451C44.9748 10.3117 44.4962 17.1806 46.6026 23.4705C48.1822 28.1872 51.1185 32.2887 54.9919 35.2926C59.7227 36.5759 64.7653 36.45 69.482 34.8707C75.772 32.7643 80.9675 28.2457 83.9258 22.3085Z" fill="#FD4755"/>
<rect width="4.90405" height="9.8081" rx="2.45202" transform="matrix(-0.552146 -0.833748 -0.833748 0.552146 53.6025 14.3213)" fill="#E41F2D"/>
<rect x="55.5796" y="16.9502" width="4.90405" height="9.8081" rx="2.45202" transform="rotate(26.4856 55.5796 16.9502)" fill="#E41F2D"/>
<rect x="64.1367" y="19.5703" width="4.90405" height="9.8081" rx="2.45202" transform="rotate(-3.51435 64.1367 19.5703)" fill="#E41F2D"/>
<g clip-path="url(#clip2_411_1148)">
<path d="M328.941 31.6575C334.079 30.3729 339.717 34.3172 340.923 39.5136C342.128 44.71 339.341 50.3491 334.903 53.2478C337.324 53.2314 339.733 54.44 341.077 56.4326C342.46 58.3962 342.788 61.0751 341.914 63.3604C340.638 66.6712 337.258 68.6095 334.029 70.0101C329.385 71.9659 324.589 73.3028 319.761 73.9337C316.895 74.338 313.963 74.4868 311.072 74.3616C310.896 74.3697 310.759 74.3488 310.582 74.357C308.741 74.2514 306.87 74.1064 305.02 73.8243C305.02 73.8243 304.951 73.8139 304.883 73.8034C303.17 73.5423 301.439 73.1731 299.718 72.7354C297.391 72.1352 295.084 71.398 292.809 70.4552C287.635 68.2992 282.299 65.5927 278.902 60.9736C277.044 58.4469 275.888 55.2211 276.632 52.1798C277.377 49.1385 280.556 46.6788 283.558 47.452C281.785 42.064 281.714 36.0942 283.382 30.67C284.413 27.3569 286.751 23.7523 290.239 23.8636C292.747 23.9656 294.689 25.9442 296.209 27.9286C297.444 21.6672 300.081 15.4092 305.01 11.3586C309.91 7.2684 317.441 5.92785 322.788 9.47737C324.473 10.6106 325.89 12.1236 327.08 13.7423C329.036 16.3189 330.655 19.2648 331.213 22.5046C331.741 25.7049 331.071 29.1782 328.941 31.6575Z" fill="#017B4E"/>
<path d="M302.257 52.8628C304.605 59.5304 305.029 66.6405 304.991 73.7855C303.278 73.5244 301.547 73.1552 299.826 72.7176C298.041 66.4865 296.876 60.1045 296.388 53.6505C296.286 52.0224 296.423 49.9752 297.889 49.3225C298.824 48.9392 299.958 49.3223 300.754 50.0748C301.511 50.8562 301.884 51.8595 302.257 52.8628Z" fill="#026841"/>
<path d="M324.884 50.213C326.227 51.2941 326.05 53.3703 325.731 55.0042C324.494 61.5106 322.474 67.8627 319.839 73.8757C316.973 74.2799 314.041 74.4288 311.151 74.3036C313.41 67.5323 315.865 60.8609 318.514 54.2894C319.076 52.9028 319.677 51.4872 320.804 50.5373C321.93 49.5873 323.697 49.2609 324.884 50.213Z" fill="#026841"/>
<path d="M310.662 74.2996C308.82 74.1941 306.949 74.049 305.1 73.767C305.336 67.3883 305.533 61.0387 305.74 54.6206C305.943 48.6926 306.227 42.4614 309.148 37.3333C310.004 35.8515 311.499 34.3267 313.112 34.783C314.09 35.0372 314.757 35.9452 315.033 36.8986C315.308 37.8519 315.259 38.861 315.21 39.8701C314.602 51.4499 313.052 62.9914 310.662 74.2996Z" fill="#026841"/>
</g>
<path d="M228.17 29.9995C226.003 36.3315 226.44 43.2649 229.385 49.2743C231.594 53.7808 235.077 57.4908 239.352 59.9785C240.777 60.8081 242.291 61.502 243.875 62.0439C250.207 64.2106 257.14 63.7733 263.149 60.828C269.159 57.8827 273.752 52.6708 275.919 46.3389L252.044 38.1692L228.17 29.9995Z" fill="#E41F2D"/>
<path fill-rule="evenodd" clip-rule="evenodd" d="M228.169 30.0002L242.681 34.9661L266.556 43.1357C264.389 49.4679 259.796 54.6796 253.787 57.6249C249.28 59.8333 244.254 60.6317 239.352 59.9791C235.077 57.4915 231.594 53.7813 229.385 49.275C226.44 43.2655 226.003 36.3323 228.169 30.0002Z" fill="#FB2B3A"/>
<rect x="255.396" y="46.1143" width="4.9478" height="9.89561" rx="2.4739" transform="rotate(-11.1096 255.396 46.1143)" fill="#FD4755"/>
<rect width="4.9478" height="9.89561" rx="2.4739" transform="matrix(-0.94614 -0.323759 -0.323759 0.94614 252.106 46.5586)" fill="#FD4755"/>
<rect width="4.9478" height="9.89561" rx="2.4739" transform="matrix(-0.657502 -0.753453 -0.753453 0.657502 244.161 42.2705)" fill="#FD4755"/>
<path d="M152 48.4898C152.463 55.1662 155.559 61.3853 160.607 65.779C164.392 69.0738 169.043 71.1395 173.948 71.7716C175.584 71.9825 177.248 72.034 178.918 71.9183C185.595 71.4555 191.814 68.3595 196.207 63.3113C200.601 58.2632 202.809 51.6764 202.347 45L177.173 46.7449L152 48.4898Z" fill="#FB2B3A"/>
<path fill-rule="evenodd" clip-rule="evenodd" d="M152 48.4901L167.301 47.4295L192.475 45.6846C192.937 52.3611 190.729 58.9477 186.335 63.9959C183.04 67.7813 178.719 70.4692 173.948 71.7719C169.043 71.1399 164.392 69.0739 160.607 65.7793C155.558 61.3856 152.463 55.1666 152 48.4901Z" fill="#FD4755"/>
<rect x="183.348" y="52.7646" width="4.9478" height="9.89561" rx="2.4739" transform="rotate(-33.9651 183.348 52.7646)" fill="#E41F2D"/>
<rect width="4.9478" height="9.89561" rx="2.4739" transform="matrix(-0.997606 0.0691487 0.0691487 0.997606 180.489 54.4512)" fill="#E41F2D"/>
<rect width="4.9478" height="9.89561" rx="2.4739" transform="matrix(-0.898527 -0.438919 -0.438919 0.898527 171.501 53.5859)" fill="#E41F2D"/>
<path d="M111.71 30.0788C115.426 31.8948 116.811 37.086 114.918 40.7966C113.026 44.5073 108.525 46.4745 104.416 45.9748C105.871 47.1824 106.703 49.116 106.504 50.982C106.343 52.8505 105.192 54.6157 103.52 55.5414C101.093 56.8777 98.0993 56.3362 95.4666 55.5499C91.7083 54.383 88.1711 52.7704 84.9694 50.7196C83.0539 49.5202 81.2274 48.1349 79.5637 46.6068C79.4541 46.523 79.3828 46.4416 79.2732 46.3577C78.226 45.3686 77.1813 44.3414 76.218 43.2428C76.218 43.2428 76.1823 43.2021 76.1467 43.1614C75.2547 42.1442 74.4059 41.0531 73.5979 39.9264C72.5094 38.3977 71.5022 36.7977 70.6172 35.0907C68.6099 31.2009 66.7828 26.9011 67.0759 22.4336C67.2363 19.9899 68.1678 17.4817 70.1415 16.0389C72.1152 14.5961 75.2513 14.7252 76.6559 16.6964C78.306 12.5864 81.2651 8.98404 84.989 6.58235C87.2707 5.12143 90.4794 4.14316 92.5075 5.96353C93.9547 7.28562 94.1198 9.44394 94.0303 11.3938C97.9163 8.27415 102.638 5.86122 107.619 5.91961C112.603 5.93981 117.776 8.9252 119.186 13.7345C119.623 15.2588 119.709 16.875 119.606 18.4405C119.479 20.9631 118.965 23.5371 117.669 25.7529C116.376 27.9306 114.229 29.6689 111.71 30.0788Z" fill="#68CA44"/>
<path d="M85.1072 29.3301C83.1578 34.4942 79.8356 38.9547 76.2205 43.2043C75.3286 42.1871 74.4798 41.096 73.6717 39.9692C75.7388 35.3497 78.2516 30.9511 81.205 26.8499C81.9625 25.8259 83.0736 24.6716 84.2779 25.0191C85.0291 25.2601 85.5135 26.0589 85.6112 26.9089C85.6706 27.7565 85.3889 28.5433 85.1072 29.3301Z" fill="#80D261"/>
<path d="M99.9565 39.1252C100.215 40.446 99.0656 41.5977 98.0534 42.4133C94.0428 45.6782 89.6422 48.4573 85.045 50.725C83.1296 49.5256 81.3031 48.1403 79.6393 46.6123C84.3936 43.7029 89.2143 40.9514 94.1012 38.3576C95.1341 37.8118 96.2051 37.2685 97.3557 37.2672C98.5062 37.266 99.7261 37.9596 99.9565 39.1252Z" fill="#80D261"/>
<path d="M79.35 46.3624C78.3028 45.3734 77.2581 44.3461 76.2948 43.2475C79.6432 39.5557 82.9534 35.8614 86.3043 32.1314C89.4061 28.6918 92.7088 25.1121 97.0317 23.5167C98.2887 23.0622 99.9481 22.9027 100.682 23.9862C101.139 24.6298 101.081 25.508 100.766 26.2159C100.451 26.9239 99.9148 27.5023 99.3783 28.0806C93.1923 34.6925 86.4636 40.8085 79.35 46.3624Z" fill="#80D261"/>
<path d="M374.109 37.0498C377.374 34.5111 382.645 35.5496 385.146 38.8808C387.646 42.2119 387.434 47.1193 385.179 50.5899C386.903 49.8143 389.006 49.9174 390.594 50.9167C392.201 51.8828 393.281 53.6928 393.377 55.601C393.51 58.3683 391.708 60.8192 389.844 62.8381C387.143 65.7005 384.14 68.1685 380.89 70.1424C378.971 71.3354 376.923 72.3667 374.819 73.1892C374.696 73.2507 374.591 73.279 374.468 73.3405C373.119 73.8462 371.737 74.3328 370.327 74.715C370.327 74.715 370.275 74.7291 370.222 74.7433C368.917 75.0971 367.563 75.3797 366.196 75.6101C364.345 75.9156 362.465 76.1167 360.542 76.161C356.166 76.2536 351.501 76.004 347.617 73.7765C345.493 72.558 343.65 70.6185 343.222 68.2114C342.794 65.8044 344.289 63.0445 346.677 62.6496C343.711 59.3604 341.776 55.1189 341.257 50.7182C340.948 48.0266 341.48 44.7145 344.007 43.6934C345.83 42.9749 347.842 43.7756 349.553 44.7133C348.46 39.8514 348.369 34.5496 350.612 30.1012C352.821 25.6338 357.777 22.3004 362.717 23.1485C364.278 23.4263 365.767 24.06 367.128 24.8406C369.338 26.064 371.423 27.6573 372.844 29.7955C374.231 31.9145 374.848 34.6067 374.109 37.0498Z" fill="#68CA44"/>
<path d="M361.74 60.6142C365.521 64.6356 368.067 69.5806 370.294 74.696C368.988 75.0498 367.635 75.3324 366.268 75.5628C363.027 71.6751 360.182 67.4843 357.797 63.0284C357.21 61.8978 356.662 60.3924 357.504 59.4635C358.05 58.8948 358.981 58.8109 359.787 59.0969C360.574 59.4162 361.157 60.0152 361.74 60.6142Z" fill="#80D261"/>
<path d="M377.066 51.5833C378.366 51.9319 378.895 53.4706 379.182 54.7383C380.351 59.776 380.913 64.9503 380.928 70.0764C379.009 71.2693 376.961 72.3007 374.857 73.1231C374.335 67.5739 373.983 62.0344 373.802 56.5047C373.766 55.337 373.749 54.1362 374.254 53.1023C374.758 52.0685 375.918 51.2777 377.066 51.5833Z" fill="#80D261"/>
<path d="M374.506 73.2739C373.157 73.7796 371.775 74.2662 370.365 74.6484C368.521 70.0178 366.659 65.4204 364.782 60.7707C363.056 56.4726 361.293 51.9323 361.761 47.3481C361.906 46.0194 362.492 44.4588 363.788 44.2758C364.567 44.1489 365.33 44.5868 365.828 45.1809C366.325 45.775 366.609 46.5111 366.892 47.2472C370.111 55.7103 372.645 64.4428 374.506 73.2739Z" fill="#80D261"/>
<path d="M81.2374 18.0843C81.5586 21.5167 80.5032 24.9361 78.3033 27.5903C76.1034 30.2445 72.9392 31.9161 69.5068 32.2373C66.0744 32.5586 62.655 31.5031 60.0008 29.3032C57.3466 27.1033 55.675 23.9391 55.3538 20.5067L68.2956 19.2955L81.2374 18.0843Z" fill="white"/>
<path d="M75.5758 18.6144C75.7565 20.5451 75.1628 22.4685 73.9254 23.9615C72.6879 25.4545 70.9081 26.3948 68.9773 26.5755C67.0466 26.7562 65.1232 26.1625 63.6302 24.925C62.1372 23.6876 61.197 21.9077 61.0163 19.977L68.296 19.2957L75.5758 18.6144Z" fill="#FED402"/>
<path d="M75.1654 18.6528C75.3076 20.1716 74.8406 21.6846 73.8671 22.8591C72.8937 24.0335 71.4936 24.7732 69.9748 24.9153C68.456 25.0575 66.9429 24.5904 65.7685 23.617C64.594 22.6436 63.8544 21.2435 63.7122 19.7247L69.4388 19.1887L75.1654 18.6528Z" fill="#FEDF74"/>
<path d="M289.437 48.2258C287.73 44.1542 287.71 39.5712 289.382 35.4851C291.054 31.3989 294.28 28.1443 298.352 26.4372C302.423 24.73 307.006 24.7102 311.092 26.3821C315.179 28.054 318.433 31.2807 320.14 35.3523L304.789 41.789L289.437 48.2258Z" fill="white"/>
<path d="M296.153 45.4096C295.193 43.1194 295.182 40.5415 296.122 38.243C297.062 35.9446 298.877 34.1138 301.168 33.1536C303.458 32.1933 306.036 32.1822 308.334 33.1226C310.633 34.0631 312.463 35.878 313.424 38.1683L304.788 41.789L296.153 45.4096Z" fill="#FED402"/>
<path d="M296.639 45.2051C295.884 43.4035 295.875 41.3756 296.615 39.5675C297.355 37.7594 298.783 36.3193 300.584 35.5639C302.386 34.8085 304.414 34.7997 306.222 35.5395C308.03 36.2793 309.47 37.7071 310.226 39.5087L303.433 42.3569L296.639 45.2051Z" fill="#FEDF74"/>
<circle cx="335.063" cy="21.0633" r="13.5949" stroke="#FED2A4" stroke-width="9.06329"/>
<circle cx="224.063" cy="59.0633" r="13.5949" stroke="#FED2A4" stroke-width="9.06329"/>
<circle cx="132.063" cy="7.06329" r="13.5949" stroke="#FED2A4" stroke-width="9.06329"/>
<path d="M271 6C271 11.946 266.675 16.8819 261 17.8341C260.35 17.9432 259.681 18 259 18C252.373 18 247 12.6274 247 6C247 -0.627417 252.373 -6 259 -6C259.681 -6 260.35 -5.9432 261 -5.83408C266.675 -4.88193 271 0.0540075 271 6Z" fill="#2E3E70"/>
<path fill-rule="evenodd" clip-rule="evenodd" d="M261 -5.83398C255.325 -4.88183 251 0.0541048 251 6.0001C251 11.9461 255.325 16.882 261 17.8342C266.675 16.882 271 11.9461 271 6.0001C271 0.0541081 266.675 -4.88182 261 -5.83398Z" fill="#3E5690"/>
<path d="M286.831 22.6383C284.115 27.9276 278.013 30.3429 272.529 28.5973C271.901 28.3972 271.281 28.1425 270.675 27.8313C264.779 24.8037 262.454 17.5702 265.482 11.6747C268.509 5.77924 275.743 3.45428 281.638 6.4818C282.244 6.79308 282.813 7.14883 283.341 7.54302C287.955 10.9827 289.547 17.349 286.831 22.6383Z" fill="#2E3E70"/>
<path fill-rule="evenodd" clip-rule="evenodd" d="M283.341 7.54326C277.858 5.79763 271.756 8.21291 269.04 13.5022C266.324 18.7916 267.916 25.1579 272.529 28.5975C278.013 30.3432 284.115 27.9279 286.831 22.6386C289.547 17.3492 287.955 10.9829 283.341 7.54326Z" fill="#3E5690"/>
<path d="M142.831 47.6383C140.115 52.9276 134.013 55.3429 128.529 53.5973C127.901 53.3972 127.281 53.1425 126.675 52.8313C120.779 49.8037 118.454 42.5702 121.482 36.6747C124.509 30.7792 131.743 28.4543 137.638 31.4818C138.244 31.7931 138.813 32.1488 139.341 32.543C143.955 35.9827 145.547 42.349 142.831 47.6383Z" fill="#2E3E70"/>
<path fill-rule="evenodd" clip-rule="evenodd" d="M139.341 32.5428C133.858 30.7971 127.756 33.2124 125.04 38.5017C122.324 43.7911 123.916 50.1574 128.529 53.597C134.013 55.3427 140.115 52.9274 142.831 47.6381C145.547 42.3488 143.955 35.9824 139.341 32.5428Z" fill="#3E5690"/>
<path d="M91.831 43.6383C89.1148 48.9276 83.013 51.3429 77.5294 49.5973C76.901 49.3972 76.2807 49.1425 75.6745 48.8313C69.779 45.8037 67.4541 38.5702 70.4816 32.6747C73.5091 26.7792 80.7426 24.4543 86.6381 27.4818C87.2443 27.7931 87.8127 28.1488 88.3414 28.543C92.9551 31.9827 94.5473 38.349 91.831 43.6383Z" fill="#2E3E70"/>
<path fill-rule="evenodd" clip-rule="evenodd" d="M88.3414 28.5433C82.8578 26.7976 76.756 29.2129 74.0398 34.5022C71.3236 39.7916 72.9157 46.1579 77.5294 49.5975C83.013 51.3432 89.1148 48.9279 91.831 43.6386C94.5472 38.3492 92.9551 31.9829 88.3414 28.5433Z" fill="#3E5690"/>
<path d="M109.041 59.7752C106.159 64.7547 102.514 69.2405 98.2469 73.0725C97.1881 74.0232 96.0908 74.9337 94.9574 75.8015C89.2562 80.1671 82.751 83.367 75.8131 85.2185C68.8753 87.07 61.6407 87.5368 54.5224 86.5924C50.218 86.0213 46.0072 84.9409 41.9765 83.3808C39.3415 82.3608 36.7834 81.1359 34.3266 79.7141C28.1116 76.1175 22.6658 71.332 18.3003 65.6308C13.9347 59.9296 10.7348 53.4244 8.88334 46.4865C7.03184 39.5487 6.56498 32.3141 7.50942 25.1958C7.69717 23.7807 7.93982 22.3757 8.23661 20.9839C9.43275 15.3746 11.5061 9.97948 14.3877 5L61.7142 32.3876L109.041 59.7752Z" fill="#C4E2FF"/>
<path fill-rule="evenodd" clip-rule="evenodd" d="M109.04 59.775L76.3543 40.8598L29.0278 13.4722C25.4312 19.6872 23.0939 26.5498 22.1494 33.6681C21.205 40.7863 21.6719 48.021 23.5233 54.9587C25.375 61.8966 28.5749 68.4017 32.9405 74.1029C35.5802 77.5506 38.615 80.6632 41.976 83.3805C46.0067 84.9407 50.2177 86.0208 54.522 86.592C61.6403 87.5365 68.8748 87.0697 75.8127 85.2183C82.7505 83.3669 89.2558 80.167 94.957 75.8014C96.0904 74.9335 97.1876 74.023 98.2465 73.0722C102.514 69.2402 106.159 64.7545 109.04 59.775Z" fill="#D8ECFE"/>
<path fill-rule="evenodd" clip-rule="evenodd" d="M14.3877 5L109.041 59.7752C106.159 64.7547 102.514 69.2406 98.2469 73.0725L8.23661 20.9839C9.43268 15.3748 11.5061 9.9795 14.3877 5Z" fill="#EAF6FF"/>
</g>
<defs>
<clipPath id="clip0_411_1148">
<path d="M0 16C0 7.16344 7.16344 0 16 0H356C364.837 0 372 7.16344 372 16V64H0V16Z" fill="white"/>
</clipPath>
<clipPath id="clip1_411_1148">
<rect width="66.844" height="65.1778" fill="white" transform="translate(245.295 3.92383) rotate(133.571)"/>
</clipPath>
<clipPath id="clip2_411_1148">
<rect width="66.844" height="65.1778" fill="white" transform="translate(264.356 41.1943) rotate(-36.3306)"/>
</clipPath>
</defs>
</svg>
