<svg width="24" height="24" viewBox="0 0 24 24" fill="none" xmlns="http://www.w3.org/2000/svg">
<path d="M9.375 11.5706C9.78797 14.3185 9.03141 15.8208 6.89484 16.1367C4.52062 16.4878 3.54234 14.8974 3.12938 12.1496C2.57391 8.45205 3.87938 6.15237 5.74078 6.00424C7.43484 5.86971 8.96156 8.8233 9.375 11.5706ZM10.4836 19.1967C10.6303 20.7567 9.78703 22.2127 8.51484 22.4621C7.23047 22.7133 5.76281 21.6947 5.46375 20.1563C5.16469 18.6178 6.29578 18.5363 7.68187 18.2714C9.06797 18.0066 10.3064 17.3152 10.4836 19.1967ZM14.625 7.07018C14.212 9.81799 14.9686 11.3203 17.1047 11.6363C19.4794 11.9874 20.4572 10.3969 20.8702 7.64909C21.4261 3.95112 20.1202 1.63877 18.2592 1.50377C16.553 1.38002 15.0384 4.32237 14.625 7.07018ZM13.5164 14.6967C13.3697 16.2563 14.213 17.7127 15.4852 17.9621C16.7695 18.2133 18.2372 17.1947 18.5362 15.6563C18.8353 14.1178 17.7042 14.0363 16.3181 13.771C14.932 13.5056 13.6936 12.8147 13.5164 14.6967Z" stroke="#34C759" stroke-width="1.5" stroke-miterlimit="10"/>
</svg>
