<svg width="65" height="98" viewBox="0 0 65 98" fill="none" xmlns="http://www.w3.org/2000/svg">
<path d="M27.9723 11.6234C27.9723 11.6234 9.08871 -16.5585 -5.93878 14.8418C-5.93878 14.8418 -32.114 5.5923 -23.6791 33.2392C-23.6791 33.2392 -50.7642 49.9152 -21.6738 62.5732C-21.6738 62.5732 -35.3468 90.6294 2.35299 84.6456C2.35299 84.6456 17.2332 108.54 34.912 82.7255C34.912 82.7255 53.2014 93.2073 52.6555 64.3012C52.6555 64.3012 80.1061 49.2463 50.7767 34.6443C50.7969 34.6577 59.2203 5.88898 27.9723 11.6234Z" fill="#FFB700"/>
<path d="M18.2731 52.6447C15.7878 51.858 14.4073 49.2028 15.2007 46.7074L18.0655 37.6976C18.8522 35.2123 21.5074 33.8318 24.0029 34.6252C26.4882 35.4119 27.8687 38.0671 27.0753 40.5625L24.2105 49.5723C23.4136 52.0509 20.7585 53.4314 18.2731 52.6447Z" fill="white"/>
<path d="M35.1599 58.0012C32.6745 57.2145 31.294 54.5593 32.0874 52.0639L34.9523 43.0541C35.739 40.5688 38.3941 39.1882 40.8896 39.9816C43.3749 40.7683 44.7554 43.4235 43.962 45.9189L41.0972 54.9287C40.3105 57.414 37.6553 58.7946 35.1599 58.0012Z" fill="white"/>
<circle cx="59.9776" cy="75.5116" r="4.0066" transform="rotate(16.4556 59.9776 75.5116)" fill="#FFB700"/>
</svg>
