<svg width="372" height="248" viewBox="0 0 372 248" fill="none" xmlns="http://www.w3.org/2000/svg">
<g opacity="0.24">
<rect y="147.351" width="57.974" height="100.247" rx="9.66234" fill="#FFB700"/>
<rect x="62.8052" y="61.5974" width="57.974" height="186" rx="9.66234" fill="#FFB700"/>
<rect x="125.61" y="28.987" width="57.974" height="218.61" rx="9.66234" fill="#FFB700"/>
<rect x="188.416" width="57.974" height="247.597" rx="9.66234" fill="#FFB700"/>
<rect x="251.221" y="61.5974" width="57.974" height="186" rx="9.66234" fill="#FFB700"/>
<rect x="314.026" y="19.3247" width="57.974" height="228.273" rx="9.66234" fill="#FFB700"/>
</g>
<path d="M196.033 46.3349C196.033 46.3349 145.533 1.19264 132.04 69.3777C132.04 69.3777 76.8266 64.4694 106.852 113.759C106.852 113.759 62.7363 159.445 125.279 169.5C125.279 169.5 112.747 230.546 182.696 200.275C182.696 200.275 223.327 239.11 244.717 180.414C244.717 180.414 285.29 191.617 269.899 135.98C269.899 135.98 315.525 93.2474 251.556 79.5509C251.602 79.5667 253.627 19.7467 196.033 46.3349Z" fill="#FFB700"/>
<path d="M180.345 154.425C175.147 154.136 171.16 149.685 171.457 144.465L172.53 125.618C172.819 120.421 177.27 116.434 182.49 116.731C187.687 117.02 191.674 121.471 191.377 126.691L190.304 145.537C189.992 150.727 185.542 154.714 180.345 154.425Z" fill="white"/>
<path d="M215.661 156.413C210.464 156.124 206.477 151.673 206.774 146.453L207.847 127.606C208.136 122.409 212.587 118.422 217.807 118.719C223.004 119.008 226.991 123.459 226.694 128.679L225.621 147.526C225.332 152.723 220.881 156.71 215.661 156.413Z" fill="white"/>
<path d="M245.533 141L197.4 147.468L186 209.448L242.5 228.5L251.867 171.182L281.5 163.5L245.533 141Z" fill="url(#paint0_linear_92_2577)"/>
<path d="M279.245 162.225L256.391 164.829C252.892 165.228 250.065 167.867 249.428 171.331L240.003 222.602C239.017 227.967 243.572 232.724 248.975 231.972L271.795 228.794C275.203 228.32 277.925 225.72 278.556 222.338L288.015 171.641C289.001 166.352 284.591 161.616 279.245 162.225Z" fill="black"/>
<path d="M279.496 166.848L274.956 167.52C273.305 167.765 271.98 169.008 271.63 170.64L270.369 176.531C269.779 179.287 272.147 181.772 274.928 181.316L279.458 180.573C281.076 180.307 282.369 179.081 282.718 177.479L283.989 171.658C284.586 168.925 282.264 166.438 279.496 166.848Z" fill="#FF7B00"/>
<circle cx="274.267" cy="176.913" r="3" fill="white"/>
<circle cx="280.267" cy="170.913" r="3" fill="white"/>
<circle cx="244" cy="201" r="13" fill="#FFB700"/>
<circle cx="287" cy="191" r="8" fill="#FFB700"/>
<defs>
<linearGradient id="paint0_linear_92_2577" x1="209.433" y1="173.338" x2="255.352" y2="209.311" gradientUnits="userSpaceOnUse">
<stop stop-color="white" stop-opacity="0"/>
<stop offset="1" stop-color="white"/>
</linearGradient>
</defs>
</svg>
