<svg width="349" height="349" viewBox="0 0 349 349" fill="none" xmlns="http://www.w3.org/2000/svg">
<rect x="166.5" width="16" height="48" rx="8" fill="#FFB700"/>
<rect x="166.5" y="301" width="16" height="48" rx="8" fill="#FFB700"/>
<rect x="292.233" y="45.453" width="16" height="48" rx="8" transform="rotate(45 292.233 45.453)" fill="#FFB700"/>
<rect x="79.3943" y="258.292" width="16" height="48" rx="8" transform="rotate(45 79.3943 258.292)" fill="#FFB700"/>
<rect x="349" y="166.5" width="16" height="48" rx="8" transform="rotate(90 349 166.5)" fill="#FFB700"/>
<rect x="48" y="166.5" width="16" height="48" rx="8" transform="rotate(90 48 166.5)" fill="#FFB700"/>
<rect x="303.547" y="292.233" width="16" height="48" rx="8" transform="rotate(135 303.547 292.233)" fill="#FFB700"/>
<rect x="90.7078" y="79.3941" width="16" height="48" rx="8" transform="rotate(135 90.7078 79.3941)" fill="#FFB700"/>
<path d="M174.384 91.5464C174.384 91.5464 118.607 53.1143 113.798 122.455C113.798 122.455 58.4057 124.53 94.3922 169.652C94.3922 169.652 56.3729 220.524 119.683 222.633C119.683 222.633 114.93 284.77 180.516 245.942C180.516 245.942 225.708 279.358 239.546 218.438C239.546 218.438 281.206 224.448 258.939 171.189C258.939 171.189 298.828 123.057 233.645 117.515C233.692 117.525 228.177 57.9254 174.384 91.5464Z" fill="#FFB700"/>
<path d="M161.378 196.898C156.186 197.265 151.671 193.351 151.309 188.136L150.002 169.303C149.635 164.111 153.549 159.596 158.765 159.234C163.957 158.867 168.473 162.781 168.835 167.997L170.141 186.829C170.484 192.016 166.57 196.532 161.378 196.898Z" fill="white"/>
<path d="M196.665 194.429C191.472 194.796 186.957 190.882 186.595 185.666L185.289 166.834C184.922 161.641 188.836 157.126 194.052 156.764C199.244 156.397 203.759 160.311 204.121 165.527L205.427 184.359C205.794 189.552 201.88 194.067 196.665 194.429Z" fill="white"/>
<circle cx="256.186" cy="234.686" r="8" transform="rotate(-5.15168 256.186 234.686)" fill="#FFB700"/>
<circle cx="101.186" cy="239.686" r="8" transform="rotate(-5.15168 101.186 239.686)" fill="#FFB700"/>
</svg>
