<svg width="300" height="289" viewBox="0 0 300 289" fill="none" xmlns="http://www.w3.org/2000/svg">
<path d="M187.542 36.6756C187.542 36.6756 133.927 -4.71921 125.371 64.2595C125.371 64.2595 69.9477 63.3334 103.439 110.337C103.439 110.337 62.722 159.076 125.825 164.609C125.825 164.609 117.715 226.398 185.307 191.177C185.307 191.177 228.624 226.99 245.74 166.908C245.74 166.908 287.013 175.165 267.661 120.778C267.661 120.778 310.098 74.8759 245.31 65.8138C245.356 65.8263 243.075 6.01557 187.542 36.6756Z" fill="#FFB700"/>
<path d="M182.681 134.234C177.477 134.319 173.18 130.166 173.101 124.939L172.816 106.063C172.731 100.859 176.883 96.5622 182.111 96.4831C187.316 96.3977 191.612 100.55 191.691 105.778L191.976 124.653C192.038 129.852 187.886 134.148 182.681 134.234Z" fill="white"/>
<path d="M218.05 133.677C212.846 133.763 208.549 129.61 208.47 124.382L208.185 105.507C208.099 100.303 212.252 96.0061 217.48 95.9269C222.684 95.8416 226.981 99.9942 227.06 105.222L227.345 124.097C227.431 129.302 223.278 133.598 218.05 133.677Z" fill="white"/>
<rect x="16.5676" y="92.5936" width="144" height="196" rx="8" transform="rotate(-3.50753 16.5676 92.5936)" fill="#954B00"/>
<path d="M59.6092 91.9542C59.3726 88.0955 62.309 84.7756 66.1678 84.5391L110.085 81.8472C113.944 81.6107 117.264 84.5471 117.501 88.4058L117.684 91.4002L59.7927 94.9486L59.6092 91.9542Z" fill="#9EA2AE"/>
<path d="M69.1009 83.3574C68.9658 81.1524 70.6437 79.2553 72.8487 79.1202L102.793 77.2848C104.998 77.1496 106.895 78.8276 107.03 81.0326L107.397 87.0214L69.468 89.3462L69.1009 83.3574Z" fill="#9EA2AE"/>
<rect x="30.0939" y="100.781" width="119" height="164" transform="rotate(-3.50753 30.0939 100.781)" fill="white"/>
<rect x="60.7698" y="86.3728" width="55" height="19" rx="5.5" transform="rotate(-3.50753 60.7698 86.3728)" stroke="#D2D5DB" stroke-width="3"/>
<rect x="84.5204" y="73.3954" width="6" height="8" rx="3" transform="rotate(-3.50753 84.5204 73.3954)" stroke="#9EA2AE" stroke-width="2"/>
<rect x="43.6006" y="124.996" width="22" height="22" rx="5" transform="rotate(-3.50753 43.6006 124.996)" stroke="black" stroke-width="2"/>
<rect x="74.7068" y="142.125" width="64" height="4" rx="2" transform="rotate(-3.50753 74.7068 142.125)" fill="#9EA2AE"/>
<rect x="77.5211" y="188.038" width="64" height="4" rx="2" transform="rotate(-3.50753 77.5211 188.038)" fill="#9EA2AE"/>
<rect x="80.3965" y="234.95" width="32" height="4" rx="2" transform="rotate(-3.50753 80.3965 234.95)" fill="#9EA2AE"/>
<rect x="74.2174" y="134.14" width="27" height="4" rx="2" transform="rotate(-3.50753 74.2174 134.14)" fill="#9EA2AE"/>
<rect x="77.0316" y="180.053" width="27" height="4" rx="2" transform="rotate(-3.50753 77.0316 180.053)" fill="#9EA2AE"/>
<rect x="79.9071" y="226.965" width="27" height="4" rx="2" transform="rotate(-3.50753 79.9071 226.965)" fill="#9EA2AE"/>
<rect x="108.972" y="178.096" width="27" height="4" rx="2" transform="rotate(-3.50753 108.972 178.096)" fill="#9EA2AE"/>
<rect x="46.4454" y="171.408" width="22" height="22" rx="5" transform="rotate(-3.50753 46.4454 171.408)" stroke="black" stroke-width="2"/>
<rect x="49.2904" y="217.821" width="22" height="22" rx="5" transform="rotate(-3.50753 49.2904 217.821)" stroke="black" stroke-width="2"/>
<path d="M51.1687 134.049L56.4652 138.734L69.114 124.434" stroke="#EE443F" stroke-width="4"/>
<path d="M53.046 181.023L58.3426 185.707L70.9913 171.407" stroke="#EE443F" stroke-width="4"/>
<circle cx="19.5436" cy="155.557" r="18" transform="rotate(-5.15168 19.5436 155.557)" fill="#FFB700"/>
<circle cx="261.686" cy="186.699" r="8" transform="rotate(-5.15168 261.686 186.699)" fill="#FFB700"/>
</svg>
