<svg width="170" height="240" viewBox="0 0 170 240" fill="none" xmlns="http://www.w3.org/2000/svg">
<path d="M-18 0C8.58909 0 31.2048 17.0119 39.5566 40.7451C61.6318 44.2185 79.775 59.5311 87.2812 79.9795C94.0285 77.408 101.35 76 109 76C142.689 76 170 103.311 170 137C170 170.689 142.689 198 109 198C104.344 198 99.8109 197.477 95.4541 196.489C87.9355 221.655 64.6108 240 37 240C5.32152 240 -20.7164 215.852 -23.7119 184.96C-32.6363 190.075 -42.9764 193 -54 193C-87.6894 193 -115 165.689 -115 132C-115 106.542 -99.4039 84.7263 -77.2451 75.5859C-78.3918 70.9124 -79 66.0272 -79 61C-79 27.3106 -51.6894 0 -18 0Z" fill="url(#paint0_linear_305_728)"/>
<defs>
<linearGradient id="paint0_linear_305_728" x1="27.5" y1="0" x2="27.5" y2="240" gradientUnits="userSpaceOnUse">
<stop stop-color="#D9D9D9" stop-opacity="0.8"/>
<stop offset="0.683333" stop-color="#D9D9D9" stop-opacity="0"/>
</linearGradient>
</defs>
</svg>
