<svg width="176" height="200" viewBox="0 0 176 200" fill="none" xmlns="http://www.w3.org/2000/svg">
<path d="M137 0C170.689 0 198 27.3106 198 61C198 63.9613 197.788 66.8732 197.38 69.7217C199.317 72.9587 200.964 76.3897 202.281 79.9795C209.028 77.408 216.35 76 224 76C257.689 76 285 103.311 285 137C285 170.689 257.689 198 224 198C211.594 198 200.054 194.296 190.424 187.935C180.259 195.513 167.654 200 154 200C133.649 200 115.626 190.034 104.545 174.716C93.4751 185.999 78.0556 193 61 193C27.3106 193 0 165.689 0 132C0 98.3106 27.3106 71 61 71C66.6152 71 72.0529 71.7601 77.2168 73.1807C76.4192 69.2447 76 65.1713 76 61C76 27.3106 103.311 0 137 0Z" fill="url(#paint0_linear_305_751)"/>
<defs>
<linearGradient id="paint0_linear_305_751" x1="142.5" y1="0" x2="142.5" y2="240" gradientUnits="userSpaceOnUse">
<stop stop-color="#D9D9D9" stop-opacity="0.8"/>
<stop offset="0.658333" stop-color="#D9D9D9" stop-opacity="0"/>
</linearGradient>
</defs>
</svg>
