<svg width="281" height="337" viewBox="0 0 281 337" fill="none" xmlns="http://www.w3.org/2000/svg">
<path d="M140.29 25.5129C140.29 25.5129 108.274 1.79294 104.047 42.4617C104.047 42.4617 71.44 42.564 91.6862 69.8174C91.6862 69.8174 68.308 98.9582 105.486 101.476C105.486 101.476 101.437 137.91 140.779 116.407C140.779 116.407 166.674 136.964 176.039 101.428C176.039 101.428 200.409 105.802 188.393 74.0411C188.393 74.0411 212.816 46.5492 174.606 41.9758C174.633 41.9826 172.593 6.83234 140.29 25.5129Z" fill="#FFB700"/>
<path d="M120 48.793L133 54.793L121.773 63.793" stroke="white" stroke-width="8" stroke-linecap="round" stroke-linejoin="round"/>
<path d="M159 48.793L147 54.793L157.364 63.793" stroke="white" stroke-width="8" stroke-linecap="round" stroke-linejoin="round"/>
<path d="M182.911 31.8509L190.903 21.6481C193.601 18.7398 198.153 18.5692 201.06 21.2754C203.968 23.9731 204.139 28.5256 201.432 31.4318C200.426 32.5137 199.166 33.2202 197.827 33.5342L185.019 35.4672C183.848 35.7482 182.661 35.0186 182.386 33.844C182.216 33.1101 182.44 32.3619 182.911 31.8509Z" fill="#59CAFC"/>
<path d="M190.903 21.6488L189.73 23.1445C192.581 20.204 197.266 20.0638 200.284 22.8629C202.27 24.7055 203.032 27.3551 202.558 29.8286C203.996 27.0375 203.48 23.5187 201.06 21.276C198.148 18.5729 193.604 18.7458 190.903 21.6488Z" fill="#00B1FF"/>
<rect y="108.793" width="281" height="59.8741" rx="29.937" fill="white"/>
<rect x="6.80389" y="115.598" width="46.2663" height="46.2663" rx="23.1332" fill="#9EA2AE"/>
<rect x="58.5133" y="131.927" width="90.4915" height="12.247" rx="6.12349" fill="#D9D9D9"/>
<rect x="58.5133" y="149.616" width="182.344" height="12.247" rx="6.12349" fill="#D9D9D9"/>
<rect y="179.554" width="281" height="59.8741" rx="29.937" fill="white"/>
<rect x="6.80389" y="186.357" width="46.2663" height="46.2663" rx="23.1332" fill="#9EA2AE"/>
<rect x="58.5133" y="202.687" width="137.438" height="12.247" rx="6.12349" fill="#D9D9D9"/>
<rect x="58.5133" y="220.377" width="78.9249" height="12.247" rx="6.12349" fill="#D9D9D9"/>
<rect x="142.881" y="220.377" width="42.184" height="12.247" rx="6.12349" fill="#D9D9D9"/>
<rect x="35.125" y="250.313" width="210.75" height="44.9056" rx="22.4528" fill="white"/>
<rect x="40.2279" y="255.416" width="34.6998" height="34.6998" rx="17.3499" fill="#9EA2AE"/>
<rect x="79.01" y="267.663" width="48" height="10" rx="5" fill="#D9D9D9"/>
<rect x="79.01" y="281.745" width="59.1937" height="9.18523" rx="4.59262" fill="#D9D9D9"/>
<g opacity="0.64">
<rect x="70.25" y="306.105" width="140.5" height="29.937" rx="14.9685" fill="white"/>
<rect x="73.652" y="309.507" width="23.1332" height="23.1332" rx="11.5666" fill="#9EA2AE"/>
<rect x="99.5066" y="317.672" width="54" height="7" rx="3.5" fill="#D9D9D9"/>
<rect x="99.5066" y="327.394" width="87" height="6" rx="3" fill="#D9D9D9"/>
</g>
<circle cx="87" cy="108.793" r="7" fill="#FFB700"/>
<circle cx="190" cy="108.793" r="7" fill="#FFB700"/>
<g clip-path="url(#clip0_310_716)">
<path d="M93.0702 30.8081L80.0907 22.7275C75.926 20.5935 70.8111 22.243 68.6829 26.4163C66.5489 30.581 68.1984 35.6959 72.3717 37.8241C73.9236 38.617 75.6064 38.8908 77.2172 38.6982L92.1935 35.668C93.6055 35.5064 94.6258 34.2185 94.457 32.8053C94.3485 31.9233 93.7978 31.1846 93.0702 30.8081Z" fill="#59CAFC"/>
<path d="M80.0902 22.7281L81.9954 23.9118C77.6474 21.8042 72.3979 23.541 70.1835 27.8622C68.7263 30.7068 68.9513 33.9515 70.4762 36.5015C67.7551 33.9885 66.9053 29.8802 68.6824 26.4168C70.8177 22.2449 75.9241 20.6012 80.0902 22.7281Z" fill="#00B1FF"/>
<path d="M95.9364 29.1154L87.075 21.3583C84.5699 18.762 84.639 14.6284 87.2353 12.1233C89.8315 9.6182 93.9652 9.68729 96.4776 12.2832C97.4073 13.2444 97.9805 14.4195 98.2049 15.6544L99.3292 27.3798C99.5247 28.4622 98.8099 29.4979 97.7276 29.6934C97.0445 29.8122 96.3818 29.5712 95.9364 29.1154Z" fill="#76DFFF"/>
<path d="M85.2188 16.616L85.3335 18.3391C85.4799 14.6195 88.5616 11.6749 92.3069 11.7396C94.7622 11.7822 96.8878 13.114 98.0678 15.0746C97.3421 12.3098 94.8611 10.2471 91.8633 10.1925C88.2572 10.1288 85.2822 13.0026 85.2188 16.616Z" fill="#59CAFC"/>
</g>
<defs>
<clipPath id="clip0_310_716">
<rect width="37.4584" height="37.4584" fill="white" transform="translate(101.357 43.5137) rotate(-169.774)"/>
</clipPath>
</defs>
</svg>
