<svg width="46" height="45" viewBox="0 0 46 45" fill="none" xmlns="http://www.w3.org/2000/svg">
<rect x="33" y="7.125" width="12.375" height="30" fill="white"/>
<path d="M18.8944 3.9316C18.8944 3.9316 4.10784 -2.25427 6.36817 14.0373C6.36817 14.0373 -6.35837 17.2132 4.17078 25.9112C4.17078 25.9112 -2.15815 39.5419 12.6055 36.9496C12.6055 36.9496 14.5283 51.5703 27.827 39.3874C27.827 39.3874 39.9184 44.9266 40.1587 30.1457C40.1587 30.1457 50.0985 29.5106 42.3504 18.2604C42.3504 18.2604 49.2458 5.17336 33.8813 7.06174C33.8927 7.06174 29.7154 -6.47165 18.8944 3.9316Z" fill="#FFB700"/>
<path d="M25.4751 30.0725C24.2906 30.4102 23.0545 29.7235 22.7169 28.5332L21.4981 24.2357C21.1604 23.0512 21.8471 21.8152 23.0374 21.4776C24.2219 21.1399 25.4579 21.8266 25.7956 23.0169L27.0144 27.3144C27.3463 28.4989 26.6596 29.7349 25.4751 30.0725Z" fill="white"/>
<path d="M33.5264 27.7825C32.3418 28.1201 31.1058 27.4334 30.7682 26.2432L29.5493 21.9457C29.2117 20.7612 29.8984 19.5251 31.0886 19.1875C32.2732 18.8499 33.5092 19.5366 33.8468 20.7268L35.0657 25.0243C35.4033 26.2089 34.7166 27.4449 33.5264 27.7825Z" fill="white"/>
</svg>
