<svg width="412" height="917" viewBox="0 0 412 917" fill="none" xmlns="http://www.w3.org/2000/svg">
  <path d="M185.77 361.969C185.77 361.969 106.908 328.977 118.964 415.866C118.964 415.866 51.0887 432.804 107.244 479.193C107.244 479.193 73.4899 551.89 152.23 538.065C152.23 538.065 162.484 616.041 233.411 551.066C233.411 551.066 297.898 580.609 299.18 501.777C299.18 501.777 352.192 498.39 310.869 438.389C310.869 438.389 347.644 368.591 265.7 378.663C265.761 378.663 243.482 306.485 185.77 361.969Z" fill="white"/>
  <path d="M220.868 501.381C214.55 503.181 207.958 499.519 206.157 493.171L199.657 470.251C197.856 463.933 201.518 457.341 207.866 455.541C214.184 453.74 220.776 457.402 222.577 463.75L229.077 486.67C230.847 492.988 227.185 499.58 220.868 501.381Z" fill="#FFB700"/>
  <path d="M263.808 489.173C257.491 490.974 250.898 487.311 249.098 480.963L242.597 458.043C240.797 451.726 244.459 445.134 250.807 443.333C257.124 441.532 263.717 445.195 265.517 451.543L272.018 474.463C273.818 480.78 270.156 487.372 263.808 489.173Z" fill="#FFB700"/>
</svg>
