<svg width="20" height="20" viewBox="0 0 20 20" fill="none" xmlns="http://www.w3.org/2000/svg">
<path d="M10.0119 9.995L7.06523 7.04916C5.27189 5.255 9.09023 2.00333 10.9902 3.9025L13.5469 6.46M10.9902 3.9025C10.3877 3.30083 10.3111 3.06 11.4844 2.62916C14.7627 1.42916 18.5027 4.99583 17.6436 8.37917C17.1452 10.3433 15.7986 12.3892 14.1361 14.12C12.4061 15.7817 10.3602 17.1283 8.39523 17.6275C5.0119 18.4858 1.44523 14.7458 2.64606 11.4683C3.07606 10.295 3.31606 10.3708 3.91856 10.9733M3.91856 10.9733C2.02023 9.07416 5.27189 5.25583 7.06523 7.05M3.91856 10.9733L6.47689 13.5317" stroke="#CB30E0" stroke-width="1.5" stroke-linecap="round"/>
</svg>
