<svg width="262" height="160" viewBox="0 0 262 160" fill="none" xmlns="http://www.w3.org/2000/svg">
<rect x="6.92334" y="18.2793" width="188" height="106" rx="24" fill="white"/>
<path d="M104.624 33.0824C104.624 33.0824 59.5377 -2.0257 52.0802 56.1366C52.0802 56.1366 5.32678 55.1626 33.4175 94.9323C33.4175 94.9323 -1.10189 135.909 52.1143 140.796C52.1143 140.796 45.0578 192.894 102.202 163.415C102.202 163.415 138.621 193.779 153.269 143.152C153.269 143.152 188.059 150.261 171.923 104.311C171.923 104.311 207.883 65.7352 153.258 57.8649C153.297 57.8756 151.58 7.40993 104.624 33.0824Z" fill="#FFB700"/>
<path d="M118.297 61.784C122.667 61.7735 126.226 65.3107 126.231 69.7011L126.249 85.5529C126.259 89.9237 122.722 93.4825 118.332 93.4875C113.961 93.498 110.402 89.9608 110.397 85.5704L110.379 69.7186C110.389 65.3533 113.926 61.7945 118.297 61.784Z" fill="white"/>
<path d="M88.5932 61.8357C92.9641 61.8252 96.5229 65.3625 96.5279 69.7529L96.5454 85.6046C96.5559 89.9755 93.0186 93.5343 88.6282 93.5393C84.2574 93.5498 80.6986 90.0125 80.6936 85.6221L80.6761 69.7704C80.6656 65.3995 84.2028 61.8407 88.5932 61.8357Z" fill="white"/>
<path d="M118.298 55.907C122.668 55.8965 126.227 59.4338 126.232 63.8242L126.25 79.6759C126.26 84.0468 122.723 87.6056 118.333 87.6106C113.962 87.6211 110.403 84.0838 110.398 79.6934L110.38 63.8417C110.389 59.4763 113.927 55.9175 118.298 55.907Z" fill="#FFB700"/>
<path d="M88.5932 55.9578C92.9641 55.9473 96.5229 59.4845 96.5279 63.8749L96.5454 79.7267C96.5559 84.0976 93.0186 87.6564 88.6282 87.6613C84.2574 87.6718 80.6986 84.1346 80.6936 79.7442L80.6761 63.8924C80.6656 59.5216 84.2028 55.9628 88.5932 55.9578Z" fill="#FFB700"/>
<path d="M190.725 56.4883H185.882V52.2432H199.558V53.3154L194.144 62.2627H199.558V66.2793H185.346V65.4707L190.725 56.4883Z" fill="black"/>
<path d="M215.633 43.2246H209.176V37.5645H227.41V38.9941L220.191 50.9238H227.41V56.2793H208.461V55.2012L215.633 43.2246Z" fill="black"/>
<path d="M244.344 16.873H235.734V9.32617H260.047V11.2324L250.422 27.1387H260.047V34.2793H234.781V32.8418L244.344 16.873Z" fill="black"/>
<circle cx="12.677" cy="130.033" r="5.67543" transform="rotate(-0.795641 12.677 130.033)" fill="#FFB700"/>
<circle cx="189.677" cy="130.033" r="5.67543" transform="rotate(-0.795641 189.677 130.033)" fill="#FFB700"/>
</svg>
