<svg width="177" height="170" viewBox="0 0 177 170" fill="none" xmlns="http://www.w3.org/2000/svg">
<ellipse cx="89.2698" cy="145" rx="68" ry="6" fill="black" fill-opacity="0.24"/>
<path d="M92.2699 39.4349C92.2699 39.4349 70.099 -10.6306 52.0219 36.5634C51.4853 37.9643 50.9527 39.4421 50.4249 41C49.8266 42.766 49.2345 44.6351 48.6495 46.612C48.5183 47.0551 48.3876 47.5037 48.2572 47.9577C48.2572 47.9577 8.96182 46.4409 31.9866 80.2982C31.9866 80.2982 2.35135 114.235 47.0221 119.139C47.0221 119.139 40.3114 162.837 88.7978 138.905C88.7978 138.905 118.965 164.978 132.037 122.63C132.037 122.63 161.182 129.126 148.301 90.2516C148.301 90.2516 179.111 58.3538 133.3 50.9212C133.303 50.9219 133.277 50.5562 133.208 49.9004C133.041 48.2965 132.622 44.9576 131.756 41C131.644 40.4877 131.524 39.9651 131.397 39.4345C127.825 24.5734 104.27 6.50034 92.2699 39.4349Z" fill="#FFB700"/>
<path d="M91.0378 97.9813C87.3452 97.9611 84.3622 94.9491 84.3872 91.24L84.4779 77.8481C84.4981 74.1555 87.5101 71.1725 91.2192 71.1975C94.9118 71.2178 97.8948 74.2297 97.8698 77.9388L97.7791 91.3307C97.7424 95.0185 94.7304 98.0015 91.0378 97.9813Z" fill="white"/>
<path d="M116.132 98.1356C112.439 98.1154 109.456 95.1034 109.481 91.3943L109.572 78.0024C109.592 74.3098 112.604 71.3268 116.313 71.3518C120.006 71.3721 122.989 74.384 122.964 78.0931L122.873 91.485C122.853 95.1776 119.841 98.1606 116.132 98.1356Z" fill="white"/>
<circle cx="163.024" cy="105.753" r="5.67543" transform="rotate(-0.795641 163.024 105.753)" fill="#FFB700"/>
<circle cx="10.0235" cy="106.753" r="5.67543" transform="rotate(-0.795641 10.0235 106.753)" fill="#FFB700"/>
<path d="M48.6493 46.6121L133.208 49.9005C133.041 48.2967 132.622 44.9577 131.756 41.0001C131.644 40.4878 131.524 39.9652 131.397 39.4346L52.0218 36.5635C51.4851 37.9644 50.9526 39.4422 50.4248 41.0001C49.8265 42.7662 49.2343 44.6352 48.6493 46.6121Z" fill="#FF383C"/>
</svg>
