<svg width="289" height="170" viewBox="0 0 289 170" fill="none" xmlns="http://www.w3.org/2000/svg">
<path d="M148.082 42.1074C148.082 42.1074 102.669 7.423 95.7562 65.6526C95.7562 65.6526 48.9957 65.1164 77.4576 104.621C77.4576 104.621 43.3233 145.919 96.583 150.307C96.583 150.307 90.0146 202.469 146.88 172.457C146.88 172.457 183.582 202.478 197.755 151.717C197.755 151.717 232.611 158.5 216.045 112.703C216.045 112.703 251.642 73.792 196.945 66.4335C196.985 66.4438 194.796 15.9964 148.082 42.1074Z" fill="#FFB700"/>
<path d="M161.01 92.3174C165.38 92.266 168.972 95.7698 169.018 100.16L169.184 116.011C169.235 120.381 165.732 123.973 161.342 124.019C156.971 124.071 153.379 120.567 153.333 116.177L153.167 100.326C153.135 95.9606 156.639 92.3689 161.01 92.3174Z" fill="white"/>
<path d="M131.308 92.6465C135.679 92.5951 139.27 96.0989 139.316 100.489L139.482 116.34C139.534 120.711 136.03 124.302 131.64 124.348C127.269 124.4 123.678 120.896 123.631 116.506L123.466 100.655C123.414 96.2844 126.918 92.6926 131.308 92.6465Z" fill="white"/>
<path d="M-2.03547 12.4061L122.833 134.855C123.581 135.588 124.587 135.999 125.634 135.999L167.778 135.999C168.877 135.999 169.928 135.547 170.683 134.749L304.717 -6.86271C307.114 -9.39571 305.348 -13.5697 301.861 -13.612L24.6208 -16.9813C23.5813 -16.9939 22.5777 -16.6013 21.8227 -15.8867L-1.98439 6.64496C-3.63136 8.2037 -3.65454 10.8184 -2.03547 12.4061Z" fill="url(#paint0_linear_363_4047)"/>
<path d="M163.867 117.999L130.516 117.999C125.901 117.999 122.243 121.892 122.531 126.498L125.531 174.498C125.795 178.714 129.291 181.999 133.516 181.999L157.492 181.999C161.503 181.999 164.895 179.029 165.423 175.052L171.798 127.052C172.434 122.258 168.704 117.999 163.867 117.999Z" fill="black"/>
<path d="M163.458 123.999L155 123.999C152.791 123.999 151 125.79 151 127.999L151 135.999C151 138.208 152.791 139.999 155 139.999L162.438 139.999C164.451 139.999 166.151 138.502 166.405 136.505L167.425 128.505C167.73 126.114 165.868 123.999 163.458 123.999Z" fill="#FF7B00"/>
<circle cx="162" cy="128.999" r="4" fill="#131927"/>
<circle cx="156" cy="134.999" r="4" fill="#131927"/>
<circle cx="121" cy="148.999" r="10" fill="#FFB700"/>
<circle cx="172" cy="152.999" r="10" fill="#FFB700"/>
<defs>
<linearGradient id="paint0_linear_363_4047" x1="153" y1="-17.001" x2="153" y2="135.999" gradientUnits="userSpaceOnUse">
<stop offset="0.439832" stop-color="white" stop-opacity="0"/>
<stop offset="1" stop-color="white"/>
</linearGradient>
</defs>
</svg>
