<svg width="263" height="153" viewBox="0 0 263 153" fill="none" xmlns="http://www.w3.org/2000/svg">
<path d="M122.006 30.6182C122.006 30.6182 76.5928 -4.06626 69.6803 54.1633C69.6803 54.1633 22.9198 53.6272 51.3816 93.132C51.3816 93.132 17.2474 134.43 70.5071 138.818C70.5071 138.818 63.9386 190.98 120.804 160.968C120.804 160.968 157.506 190.989 171.679 140.227C171.679 140.227 206.535 147.01 189.969 101.214C189.969 101.214 225.566 62.3027 170.869 54.9443C170.909 54.9546 168.72 4.50716 122.006 30.6182Z" fill="#FFB700"/>
<path d="M146.361 70.1036C150.732 70.0522 154.323 73.5559 154.369 77.9461L154.535 93.797C154.587 98.1675 151.083 101.759 146.693 101.805C142.322 101.857 138.731 98.3531 138.684 93.9629L138.519 78.112C138.487 73.7468 141.99 70.155 146.361 70.1036Z" fill="white"/>
<path d="M116.659 70.4327C121.03 70.3813 124.622 73.885 124.668 78.2752L124.834 94.1261C124.885 98.4966 121.381 102.088 116.991 102.134C112.621 102.186 109.029 98.6822 108.983 94.292L108.817 78.4411C108.765 74.0705 112.269 70.4788 116.659 70.4327Z" fill="white"/>
<path d="M27.0951 71.7284C27.4163 75.1607 26.3609 78.5801 24.1609 81.2344C21.961 83.8886 18.7968 85.5601 15.3645 85.8814C11.9321 86.2026 8.51268 85.1472 5.85848 82.9473C3.20427 80.7474 1.53269 77.5832 1.21146 74.1508L14.1533 72.9396L27.0951 71.7284Z" fill="white"/>
<path d="M21.4332 72.258C21.6139 74.1887 21.0202 76.1121 19.7828 77.6051C18.5453 79.0981 16.7655 80.0383 14.8348 80.219C12.904 80.3997 10.9806 79.8061 9.48764 78.5686C7.99465 77.3312 7.05438 75.5513 6.87369 73.6206L14.1535 72.9393L21.4332 72.258Z" fill="#FED402"/>
<path d="M21.0231 72.2973C21.1652 73.8161 20.6982 75.3291 19.7248 76.5036C18.7514 77.6781 17.3512 78.4177 15.8324 78.5599C14.3137 78.702 12.8006 78.235 11.6261 77.2615C10.4517 76.2881 9.71203 74.888 9.56988 73.3692L15.2965 72.8332L21.0231 72.2973Z" fill="#FEDF74"/>
<circle cx="23.9995" cy="86.7861" r="10" fill="#FFB700"/>
<g clip-path="url(#clip0_469_3738)">
<path d="M252.439 55.6811C257.684 56.42 261.428 62.1927 260.594 67.4616C259.76 72.7305 255.059 76.9101 249.857 77.9302C252.108 78.8241 253.887 80.8492 254.384 83.2005C254.929 85.5397 254.226 88.1456 252.558 89.9354C250.132 92.5248 246.272 93.052 242.754 93.138C237.714 93.2065 232.768 92.6448 228.056 91.4164C225.248 90.715 222.474 89.7519 219.843 88.5505C219.676 88.4918 219.557 88.421 219.39 88.3622C217.723 87.5729 216.043 86.736 214.435 85.7799C214.435 85.7799 214.375 85.7445 214.316 85.7091C212.826 84.8239 211.36 83.8316 209.93 82.7797C207.998 81.3496 206.137 79.8003 204.383 78.0723C200.397 74.131 196.467 69.6189 195.054 64.0622C194.28 61.0227 194.421 57.599 196.252 55.0597C198.084 52.5204 201.954 51.4345 204.446 53.2783C204.826 47.6191 207.002 42.0594 210.585 37.6586C212.785 34.9751 216.305 32.512 219.496 33.9249C221.782 34.9614 222.839 37.5243 223.503 39.9343C226.999 34.5949 231.792 29.7849 237.882 27.8816C243.959 25.9307 251.442 27.516 255.065 32.8138C256.202 34.4969 256.947 36.4311 257.442 38.3783C258.287 41.5008 258.681 44.839 257.982 48.0511C257.27 51.2157 255.345 54.1833 252.439 55.6811Z" fill="#017B4E"/>
<path d="M219.746 65.3144C219.419 72.376 217.141 79.1247 214.423 85.7326C212.934 84.8474 211.467 83.8551 210.037 82.8033C210.723 76.3583 212.04 70.0058 214.011 63.8408C214.527 62.2934 215.423 60.4474 217.027 60.3932C218.037 60.389 218.944 61.1696 219.4 62.1662C219.808 63.1747 219.777 64.2446 219.746 65.3144Z" fill="#026841"/>
<path d="M241.712 71.3561C242.55 72.8621 241.607 74.7202 240.697 76.1147C237.107 81.6803 232.85 86.8089 228.15 91.3927C225.342 90.6913 222.569 89.7282 219.937 88.5268C224.574 83.0994 229.354 77.8379 234.277 72.7421C235.318 71.6681 236.407 70.5819 237.808 70.1244C239.209 69.6669 240.969 70.028 241.712 71.3561Z" fill="#026841"/>
<path d="M219.486 88.338C217.818 87.5486 216.139 86.7117 214.53 85.7557C217.145 79.9326 219.712 74.1217 222.314 68.2511C224.728 62.833 227.331 57.1646 231.963 53.5082C233.314 52.4566 235.271 51.6045 236.595 52.6331C237.406 53.2359 237.683 54.3282 237.581 55.3152C237.478 56.3021 237.054 57.2191 236.63 58.1361C231.717 68.6398 225.947 78.7549 219.486 88.338Z" fill="#026841"/>
</g>
<circle cx="217" cy="88.7861" r="10" fill="#FFB700"/>
<defs>
<clipPath id="clip0_469_3738">
<rect width="66.844" height="65.1778" fill="white" transform="translate(189 40.2686) rotate(-14.2752)"/>
</clipPath>
</defs>
</svg>
