<svg width="372" height="152" viewBox="0 0 372 152" fill="none" xmlns="http://www.w3.org/2000/svg">
<g clip-path="url(#clip0_272_1093)">
<rect width="372" height="152" rx="16" fill="#0088FF"/>
<g opacity="0.2" clip-path="url(#clip1_272_1093)">
<path d="M623.276 -919.136L327.5 106.5L474.44 -950.417L623.276 -919.136Z" fill="#00C0E8"/>
<path d="M829.94 -834.772L327.5 106.5L691.532 -896.386L829.94 -834.772Z" fill="#00C0E8"/>
<path d="M1014.8 -710.596L327.5 106.5L891.56 -799.699L1014.8 -710.596Z" fill="#00C0E8"/>
<path d="M1169.32 -549.452L327.5 106.5L1067.89 -662.253L1169.32 -549.452Z" fill="#00C0E8"/>
<path d="M1286.88 -359.871L327.5 106.5L1211.04 -491.63L1286.88 -359.871Z" fill="#00C0E8"/>
<path d="M1363.66 -150.383L327.5 106.5L1316.26 -294.465L1363.66 -150.383Z" fill="#00C0E8"/>
<path d="M1394 70.479L327.5 106.5L1377.88 -80.2383L1394 70.479Z" fill="#00C0E8"/>
<path d="M1377.88 293.238L327.5 106.5L1394 142.52L1377.88 293.238Z" fill="#00C0E8"/>
<path d="M1316.26 507.465L327.5 106.5L1363.66 363.383L1316.26 507.465Z" fill="#00C0E8"/>
<path d="M1211.04 704.629L327.5 106.5L1286.88 572.87L1211.04 704.629Z" fill="#00C0E8"/>
<path d="M1067.89 875.253L327.5 106.5L1169.32 762.452L1067.89 875.253Z" fill="#00C0E8"/>
<path d="M891.56 1011.75L327.5 106.5L1014.8 922.648L891.56 1011.75Z" fill="#00C0E8"/>
<path d="M691.532 1109.39L327.5 106.5L829.94 1047.77L691.532 1109.39Z" fill="#00C0E8"/>
<path d="M474.44 1163.42L327.5 106.5L623.276 1132.14L474.44 1163.42Z" fill="#00C0E8"/>
<path d="M251.66 1171L327.5 106.5L403.34 1171H251.66Z" fill="#00C0E8"/>
<path d="M31.7241 1132.14L327.5 106.5L180.56 1163.42L31.7241 1132.14Z" fill="#00C0E8"/>
<path d="M-174.94 1047.77L327.5 106.5L-36.532 1109.39L-174.94 1047.77Z" fill="#00C0E8"/>
<path d="M-359.8 922.648L327.5 106.5L-236.56 1011.75L-359.8 922.648Z" fill="#00C0E8"/>
<path d="M-514.324 762.452L327.5 106.5L-412.888 875.253L-514.324 762.452Z" fill="#00C0E8"/>
<path d="M-631.876 572.87L327.5 106.5L-556.036 704.629L-631.876 572.87Z" fill="#00C0E8"/>
<path d="M-708.664 363.383L327.5 106.5L-661.264 507.465L-708.664 363.383Z" fill="#00C0E8"/>
<path d="M-739 142.52L327.5 106.5L-722.884 293.238L-739 142.52Z" fill="#00C0E8"/>
<path d="M-722.884 -80.2383L327.5 106.5L-739 70.479L-722.884 -80.2383Z" fill="#00C0E8"/>
<path d="M-661.264 -294.465L327.5 106.5L-708.664 -150.383L-661.264 -294.465Z" fill="#00C0E8"/>
<path d="M-556.036 -491.63L327.5 106.5L-631.876 -359.871L-556.036 -491.63Z" fill="#00C0E8"/>
<path d="M-412.888 -662.253L327.5 106.5L-514.324 -549.452L-412.888 -662.253Z" fill="#00C0E8"/>
<path d="M-236.56 -799.699L327.5 106.5L-359.8 -710.596L-236.56 -799.699Z" fill="#00C0E8"/>
<path d="M-36.532 -896.386L327.5 106.5L-174.94 -834.772L-36.532 -896.386Z" fill="#00C0E8"/>
<path d="M180.56 -950.417L327.5 106.5L31.7241 -919.136L180.56 -950.417Z" fill="#00C0E8"/>
<path d="M403.34 -958L327.5 106.5L251.66 -958H403.34Z" fill="#00C0E8"/>
</g>
<path d="M327.967 29.5736C327.967 29.5736 284.266 -10.6129 271.599 48.9784C271.599 48.9784 223.27 43.995 248.976 87.5635C248.976 87.5635 209.749 127.059 264.437 136.643C264.437 136.643 252.701 189.989 314.379 164.323C314.379 164.323 349.508 198.86 368.98 147.683C368.98 147.683 404.399 158.002 391.597 109.051C391.597 109.051 432.112 72.1632 376.219 59.3698C376.258 59.3842 378.771 6.98252 327.967 29.5736Z" fill="#FFB700"/>
<path d="M318.695 94.3893C314.143 94.0718 310.704 90.1219 311.029 85.5507L312.202 69.0464C312.519 64.4952 316.469 61.0559 321.04 61.3806C325.591 61.6981 329.031 65.648 328.706 70.2192L327.533 86.7235C327.196 91.2675 323.246 94.7067 318.695 94.3893Z" fill="white"/>
<path d="M349.622 96.568C345.071 96.2505 341.632 92.3006 341.956 87.7294L343.129 71.2251C343.447 66.6739 347.397 63.2346 351.968 63.5593C356.519 63.8768 359.958 67.8267 359.634 72.3979L358.461 88.9022C358.143 93.4534 354.193 96.8927 349.622 96.568Z" fill="white"/>
<path d="M209.131 99.4432C210.203 99.4971 211.253 99.6309 212.274 99.8383C214.415 93.8234 217.733 89.9615 221.269 90.1394C226.91 90.4233 230.968 100.885 230.333 113.506C230.151 117.123 229.603 120.525 228.782 123.531C227.186 134.032 217.861 141.822 207.026 141.277C195.474 140.696 186.58 130.86 187.161 119.307C187.743 107.755 197.579 98.8618 209.131 99.4432Z" fill="#FFB700"/>
<path d="M204.213 81.3023C204.328 79.608 206.544 79.0504 207.447 80.4886L207.964 81.3125C208.368 81.9557 209.14 82.2657 209.877 82.0803L210.82 81.8429C212.467 81.4285 213.682 83.3635 212.593 84.6667L211.97 85.4134C211.483 85.9963 211.426 86.8263 211.83 87.4695L212.348 88.2935C213.251 89.7316 211.786 91.4851 210.21 90.8524L209.307 90.4899C208.602 90.207 207.795 90.41 207.309 90.9929L206.685 91.7395C205.596 93.0428 203.476 92.1915 203.591 90.4972L203.656 89.5265C203.708 88.7688 203.265 88.0642 202.56 87.7813L201.657 87.4188C200.082 86.7861 200.236 84.5064 201.883 84.092L202.826 83.8546C203.563 83.6692 204.096 83.0307 204.148 82.273L204.213 81.3023Z" fill="#FFB700"/>
<path d="M219.938 75.0453C220.613 73.7439 222.559 74.0658 222.778 75.5151C222.876 76.1633 223.38 76.6746 224.027 76.7816C225.473 77.0209 225.768 78.9709 224.458 79.6274C223.871 79.9209 223.541 80.5585 223.639 81.2067C223.858 82.656 222.095 83.5392 221.066 82.4956C220.605 82.0289 219.897 81.9116 219.311 82.2052C218 82.8616 216.615 81.4575 217.29 80.156C217.591 79.574 217.484 78.864 217.024 78.3973C215.994 77.3536 216.902 75.6026 218.348 75.8419C218.995 75.9489 219.637 75.6273 219.938 75.0453Z" fill="#FFB700"/>
</g>
<defs>
<clipPath id="clip0_272_1093">
<rect width="372" height="152" rx="16" fill="white"/>
</clipPath>
<clipPath id="clip1_272_1093">
<rect width="2133" height="2129" fill="white" transform="translate(-739 -958)"/>
</clipPath>
</defs>
</svg>
