<svg width="48" height="48" viewBox="0 0 48 48" fill="none" xmlns="http://www.w3.org/2000/svg">
<g clip-path="url(#clip0_233_4440)">
<path d="M21.3157 8.87705C21.3157 8.87705 9.00495 3.72272 10.9006 17.2901C10.9006 17.2901 0.315015 19.9312 9.06885 27.1728C9.06885 27.1728 3.80803 38.5251 16.0975 36.3526C16.0975 36.3526 17.6949 48.5142 28.7703 38.376C28.7703 38.376 38.8234 42.9765 39.0364 30.6871C39.0364 30.6871 47.3003 30.1546 40.8681 20.8044C40.8681 20.8044 46.5975 9.92069 33.8181 11.4968C33.7968 11.4755 30.3251 0.208409 21.3157 8.87705Z" stroke="black" stroke-width="3" stroke-miterlimit="10"/>
<path d="M19.484 28.0715C18.4074 28.0862 17.4988 27.2132 17.4841 26.1366L17.4192 22.2019C17.4045 21.1253 18.2776 20.2167 19.3541 20.202C20.4306 20.1874 21.3393 21.0604 21.3539 22.1369L21.4189 26.0717C21.4335 27.1482 20.5605 28.0569 19.484 28.0715Z" fill="black"/>
<path d="M25.2645 28.0715C24.1879 28.0862 23.2793 27.2132 23.2646 26.1366L23.1997 22.2019C23.185 21.1253 24.0581 20.2167 25.1346 20.202C26.2112 20.1874 27.1198 21.0604 27.1345 22.1369L27.1994 26.0717C27.2082 27.17 26.341 28.0569 25.2645 28.0715Z" fill="black"/>
<path d="M31.045 28.0715C29.9685 28.0862 29.0598 27.2132 29.0452 26.1366L28.9802 22.2019C28.9656 21.1253 29.8386 20.2167 30.9151 20.202C31.9917 20.1874 32.9003 21.0604 32.915 22.1369L32.9799 26.0717C32.9887 27.17 32.1215 28.0569 31.045 28.0715Z" fill="black"/>
</g>
<defs>
<clipPath id="clip0_233_4440">
<rect width="40.8938" height="39.9993" fill="white" transform="translate(4 4)"/>
</clipPath>
</defs>
</svg>
