<svg width="295" height="242" viewBox="0 0 295 242" fill="none" xmlns="http://www.w3.org/2000/svg">
<path d="M184.164 43.3819C184.164 43.3819 134.692 -2.8846 119.669 64.9799C119.669 64.9799 64.58 58.8313 93.4896 108.784C93.4896 108.784 48.3576 153.466 110.658 164.925C110.658 164.925 96.7573 225.673 167.369 196.984C167.369 196.984 207.116 236.722 229.821 178.522C229.821 178.522 270.132 190.634 255.995 134.665C255.995 134.665 302.571 92.9694 238.927 77.838C238.972 77.8548 242.341 18.0954 184.164 43.3819Z" fill="#FFB700"/>
<path d="M176.885 129.368C171.696 128.962 167.81 124.423 168.224 119.211L169.721 100.393C170.127 95.2035 174.666 91.3177 179.878 91.7319C185.067 92.1378 188.953 96.6771 188.539 101.889L187.042 120.707C186.614 125.888 182.075 129.774 176.885 129.368Z" fill="white"/>
<path d="M212.149 132.15C206.959 131.744 203.074 127.205 203.488 121.993L204.984 103.175C205.39 97.9853 209.929 94.0994 215.141 94.5137C220.331 94.9195 224.216 99.4588 223.802 104.671L222.306 123.489C221.9 128.678 217.361 132.564 212.149 132.15Z" fill="white"/>
<circle cx="240.35" cy="199.618" r="8" transform="rotate(-5.15168 240.35 199.618)" fill="#FFB700"/>
<rect y="206.068" width="144" height="16" rx="8" fill="#9EA2AE"/>
<rect x="104.488" y="186" width="28.0976" height="56" rx="14.0488" fill="black"/>
<rect x="11.4147" y="186" width="28.0976" height="56" rx="14.0488" fill="black"/>
<circle cx="72.0581" cy="214.058" r="24" transform="rotate(-5.15168 72.0581 214.058)" fill="#FFB700"/>
<g clip-path="url(#clip0_100_2829)">
<path d="M90.634 53.3975L71.6501 37.9257C65.4657 33.6901 57.0041 35.2736 52.7763 41.4727C48.5407 47.6571 50.1242 56.1187 56.3233 60.3466C58.6283 61.9212 61.2465 62.6976 63.845 62.7183L88.2552 60.9415C90.5314 60.9711 92.4138 59.1317 92.4323 56.8521C92.4387 55.4287 91.7135 54.1434 90.634 53.3975Z" fill="#59CAFC"/>
<path d="M71.6493 37.9255L74.4364 40.1928C67.9555 35.9621 59.2622 37.6568 54.8674 44.0736C51.975 48.2977 51.6743 53.4989 53.5801 57.8597C49.7663 53.315 49.2494 46.6151 52.7754 41.4725C57.0145 35.2769 65.4614 33.7012 71.6493 37.9255Z" fill="#00B1FF"/>
<path d="M95.5314 51.2892L83.0251 37.1666C79.5715 32.5333 80.5197 25.9795 85.153 22.5258C89.7863 19.0721 96.3401 20.0204 99.8055 24.6546C101.088 26.3705 101.76 28.3538 101.866 30.3614L101.274 49.2197C101.365 50.9791 100.019 52.4798 98.2601 52.5708C97.1507 52.6211 96.1466 52.1038 95.5314 51.2892Z" fill="#76DFFF"/>
<path d="M81.0376 29.2554L80.8703 32.0165C81.8574 26.1361 87.3511 22.0827 93.2888 22.9452C97.1814 23.5109 100.289 26.0581 101.766 29.4125C101.173 24.8725 97.65 21.0918 92.8979 20.3969C87.1811 19.5643 81.8712 23.5269 81.0376 29.2554Z" fill="#59CAFC"/>
</g>
<defs>
<clipPath id="clip0_100_2829">
<rect width="60" height="60" fill="white" transform="translate(101.223 75.2659) rotate(-162.499)"/>
</clipPath>
</defs>
</svg>
