<svg width="295" height="242" viewBox="0 0 295 242" fill="none" xmlns="http://www.w3.org/2000/svg">
<path d="M184.164 43.3819C184.164 43.3819 134.692 -2.8846 119.669 64.9799C119.669 64.9799 64.58 58.8313 93.4896 108.784C93.4896 108.784 48.3576 153.466 110.658 164.925C110.658 164.925 96.7573 225.673 167.369 196.984C167.369 196.984 207.116 236.722 229.821 178.522C229.821 178.522 270.132 190.634 255.995 134.665C255.995 134.665 302.571 92.9694 238.927 77.838C238.972 77.8548 242.341 18.0954 184.164 43.3819Z" fill="#FFB700"/>
<path d="M176.885 129.368C171.696 128.962 167.81 124.423 168.224 119.211L169.721 100.393C170.127 95.2033 174.666 91.3174 179.878 91.7317C185.067 92.1375 188.953 96.6768 188.539 101.889L187.042 120.707C186.614 125.888 182.075 129.774 176.885 129.368Z" fill="white"/>
<path d="M212.149 132.149C206.959 131.744 203.074 127.204 203.488 121.992L204.984 103.174C205.39 97.985 209.929 94.0992 215.141 94.5134C220.331 94.9193 224.216 99.4586 223.802 104.671L222.306 123.489C221.9 128.678 217.361 132.564 212.149 132.149Z" fill="white"/>
<circle cx="240.35" cy="199.618" r="8" transform="rotate(-5.15168 240.35 199.618)" fill="#FFB700"/>
<rect y="172.068" width="144" height="16" rx="8" fill="#9EA2AE"/>
<rect x="104.488" y="152" width="28.0976" height="56" rx="14.0488" fill="black"/>
<rect x="11.4147" y="152" width="28.0976" height="56" rx="14.0488" fill="black"/>
<circle cx="72.0581" cy="180.058" r="24" transform="rotate(-5.15168 72.0581 180.058)" fill="#FFB700"/>
<g clip-path="url(#clip0_100_2828)">
<path d="M91.0601 53.3975L72.0763 37.9257C65.8918 33.6901 57.4303 35.2736 53.2024 41.4727C48.9669 47.6571 50.5503 56.1187 56.7494 60.3466C59.0545 61.9212 61.6727 62.6976 64.2711 62.7183L88.6814 60.9415C90.9575 60.9711 92.84 59.1317 92.8584 56.8521C92.8648 55.4287 92.1397 54.1434 91.0601 53.3975Z" fill="#59CAFC"/>
<path d="M72.0755 37.9255L74.8625 40.1928C68.3816 35.9621 59.6884 37.6568 55.2936 44.0736C52.4011 48.2977 52.1005 53.4989 54.0062 57.8597C50.1925 53.315 49.6755 46.6151 53.2016 41.4725C57.4406 35.2769 65.8875 33.7012 72.0755 37.9255Z" fill="#00B1FF"/>
<path d="M95.9575 51.2892L83.4513 37.1666C79.9976 32.5333 80.9458 25.9795 85.5791 22.5258C90.2124 19.0721 96.7663 20.0204 100.232 24.6546C101.514 26.3705 102.186 28.3538 102.292 30.3614L101.7 49.2197C101.791 50.9791 100.446 52.4798 98.6862 52.5708C97.5769 52.6211 96.5728 52.1038 95.9575 51.2892Z" fill="#76DFFF"/>
<path d="M81.4638 29.2554L81.2964 32.0165C82.2836 26.1361 87.7773 22.0827 93.715 22.9452C97.6076 23.5109 100.715 26.0581 102.192 29.4125C101.6 24.8725 98.0761 21.0918 93.324 20.3969C87.6073 19.5643 82.2974 23.5269 81.4638 29.2554Z" fill="#59CAFC"/>
</g>
<defs>
<clipPath id="clip0_100_2828">
<rect width="60" height="60" fill="white" transform="translate(101.649 75.2659) rotate(-162.499)"/>
</clipPath>
</defs>
</svg>
