<svg width="202" height="212" viewBox="0 0 202 212" fill="none" xmlns="http://www.w3.org/2000/svg">
<rect opacity="0.24" x="3.80078" y="14" width="28" height="28" rx="6.39003" fill="#34C759"/>
<rect opacity="0.24" x="38.1909" y="14" width="28" height="28" rx="6.39003" fill="#0088FF"/>
<rect x="72.5811" width="56" height="56" rx="6.39003" fill="#FFCC00"/>
<rect opacity="0.24" x="134.971" y="14" width="28" height="28" rx="6.39003" fill="#FF8D28"/>
<rect opacity="0.24" x="169.361" y="14" width="28" height="28" rx="6.39003" fill="#FF383C"/>
<path d="M114.546 84.8888C114.546 84.8888 77.8304 48.8598 65.0736 99.9945C65.0736 99.9945 23.2984 94.2574 44.3039 132.677C44.3039 132.677 9.10344 165.656 56.2585 175.558C56.2585 175.558 44.4944 221.322 98.7585 200.961C98.7585 200.961 128.206 231.853 146.616 188.193C146.616 188.193 177.035 198.16 167.383 155.469C167.383 155.469 203.623 124.783 155.517 112.071C155.552 112.085 159.287 66.8644 114.546 84.8888Z" fill="#FFB700"/>
<path d="M90.8951 141.529C86.9566 141.12 84.0905 137.604 84.5078 133.662L86.0151 119.431C86.4256 115.506 89.9541 112.65 93.9097 113.066C97.8482 113.475 100.714 116.991 100.297 120.933L98.7897 135.164C98.3621 139.082 94.8337 141.938 90.8951 141.529Z" fill="white"/>
<path d="M117.659 144.327C113.72 143.918 110.854 140.402 111.271 136.46L112.779 122.229C113.189 118.304 116.718 115.448 120.673 115.864C124.612 116.273 127.478 119.789 127.061 123.731L125.553 137.962C125.143 141.886 121.614 144.742 117.659 144.327Z" fill="white"/>
<circle cx="182.555" cy="167.555" r="6.06452" transform="rotate(4.84094 182.555 167.555)" fill="#FFB700"/>
<circle cx="15.514" cy="130.554" r="6.06452" transform="rotate(4.84094 15.514 130.554)" fill="#FFB700"/>
</svg>
