<svg width="281" height="206" viewBox="0 0 281 206" fill="none" xmlns="http://www.w3.org/2000/svg">
<path d="M181.331 17.337C181.331 17.337 125.513 -33.9921 109.334 42.1222C109.334 42.1222 47.6045 35.7572 80.4381 91.406C80.4381 91.406 30.3339 141.852 100.186 154.094C100.186 154.094 85.1957 222.231 163.975 189.449C163.975 189.449 208.844 233.562 233.715 168.195C233.715 168.195 278.956 181.375 262.604 118.851C262.604 118.851 314.353 71.7356 242.961 55.3949C243.012 55.4133 246.222 -11.5179 181.331 17.337Z" fill="#FFB700"/>
<path d="M169.487 100.125C163.674 99.7199 159.281 94.6748 159.696 88.8362L161.194 67.7556C161.6 61.9425 166.645 57.5496 172.483 57.9644C178.297 58.3699 182.689 63.415 182.275 69.2536L180.777 90.3342C180.346 96.1381 175.301 100.531 169.487 100.125Z" fill="white"/>
<path d="M208.99 102.908C203.177 102.502 198.784 97.457 199.199 91.6184L200.697 70.5379C201.103 64.7247 206.148 60.3319 211.986 60.7466C217.8 61.1521 222.192 66.1972 221.778 72.0359L220.28 93.1164C219.874 98.9295 214.829 103.322 208.99 102.908Z" fill="white"/>
<circle cx="249.619" cy="188.809" r="8.95617" transform="rotate(2.88097 249.619 188.809)" fill="#FFB700"/>
<path d="M29.5444 106.58C30.9142 106.649 32.2547 106.82 33.5589 107.085C36.2935 99.4023 40.5319 94.4695 45.0478 94.6967C52.2533 95.0593 57.4369 108.422 56.6256 124.542C56.3931 129.162 55.6935 133.507 54.644 137.347C52.6061 150.76 40.6949 160.71 26.8554 160.013C12.1002 159.271 0.740755 146.707 1.48331 131.952C2.22586 117.197 14.7892 105.838 29.5444 106.58Z" fill="#FFB700"/>
<path d="M23.2633 83.4093C23.4098 81.2452 26.24 80.533 27.3934 82.3699L28.0543 83.4223C28.5701 84.2438 29.5562 84.6398 30.4969 84.403L31.7021 84.0997C33.8055 83.5704 35.3574 86.042 33.9669 87.7066L33.1701 88.6603C32.5482 89.4047 32.4764 90.4649 32.9923 91.2864L33.6531 92.3389C34.8065 94.1758 32.9355 96.4155 30.9227 95.6074L29.7694 95.1444C28.8693 94.783 27.8387 95.0423 27.2169 95.7867L26.4201 96.7405C25.0296 98.4051 22.3213 97.3178 22.4678 95.1537L22.5518 93.9138C22.6174 92.946 22.0523 92.0461 21.1521 91.6847L19.9989 91.2217C17.986 90.4135 18.1832 87.5018 20.2866 86.9725L21.4918 86.6692C22.4325 86.4325 23.1138 85.6169 23.1793 84.6492L23.2633 83.4093Z" fill="#FFEA00"/>
<path d="M43.3487 75.4166C44.2101 73.7543 46.6954 74.1655 46.9755 76.0167C47.1008 76.8446 47.7449 77.4976 48.571 77.6343C50.4181 77.94 50.795 80.4307 49.121 81.2691C48.3723 81.6441 47.9503 82.4585 48.0755 83.2863C48.3556 85.1375 46.1033 86.2656 44.7886 84.9326C44.2006 84.3365 43.2957 84.1868 42.547 84.5617C40.873 85.4002 39.1041 83.6067 39.9656 81.9444C40.3509 81.201 40.2136 80.2941 39.6257 79.6979C38.311 78.365 39.4701 76.1284 41.3172 76.434C42.1433 76.5707 42.9634 76.16 43.3487 75.4166Z" fill="#FFEA00"/>
</svg>
