<svg width="241" height="241" viewBox="0 0 241 241" fill="none" xmlns="http://www.w3.org/2000/svg">
<path d="M125.31 58.5675C125.31 58.5675 80.7794 23.1806 72.7852 80.9972C72.7852 80.9972 26.2602 79.5682 53.8285 119.428C53.8285 119.428 19.0679 159.873 71.9869 165.26C71.9869 165.26 64.4513 217.045 121.618 188.266C121.618 188.266 157.568 218.845 172.645 168.6C172.645 168.6 207.202 176.018 191.593 130.125C191.593 130.125 227.764 92.0824 173.472 83.712C173.511 83.7231 172.298 33.4768 125.31 58.5675Z" fill="#FFB700"/>
<path d="M108.389 119.476C104.018 119.486 100.46 115.949 100.455 111.559L100.437 95.7069C100.427 91.336 103.964 87.7772 108.354 87.7723C112.725 87.7618 116.284 91.299 116.289 95.6894L116.306 111.541C116.297 115.906 112.76 119.465 108.389 119.476Z" fill="white"/>
<path d="M138.092 119.425C133.721 119.435 130.163 115.898 130.158 111.507L130.14 95.6556C130.13 91.2848 133.667 87.726 138.057 87.721C142.428 87.7105 145.987 91.2477 145.992 95.6381L146.009 111.49C146.02 115.861 142.483 119.42 138.092 119.425Z" fill="white"/>
<path d="M108.389 125.354C104.018 125.364 100.459 121.827 100.454 117.437L100.437 101.585C100.426 97.214 103.963 93.6552 108.354 93.6502C112.725 93.6397 116.283 97.1769 116.288 101.567L116.306 117.419C116.297 121.784 112.76 125.343 108.389 125.354Z" fill="#FFB700"/>
<path d="M138.093 125.303C133.722 125.313 130.163 121.776 130.158 117.386L130.141 101.534C130.13 97.1632 133.667 93.6044 138.058 93.5994C142.429 93.5889 145.987 97.1261 145.992 101.517L146.01 117.368C146.02 121.739 142.483 125.298 138.093 125.303Z" fill="#FFB700"/>
<circle cx="203.357" cy="71.5212" r="6.71777" transform="rotate(-1.2469 203.357 71.5212)" fill="#FFB700"/>
<circle cx="33.7335" cy="71.5212" r="6.71777" transform="rotate(-1.2469 33.7335 71.5212)" fill="#FFB700"/>
<rect x="114.976" width="11.0487" height="33.1461" rx="5.52436" fill="#FFB700" fill-opacity="0.32"/>
<rect x="114.976" y="207.854" width="11.0487" height="33.1461" rx="5.52436" fill="#FFB700" fill-opacity="0.32"/>
<rect x="201.799" y="31.3867" width="11.0487" height="33.1461" rx="5.52436" transform="rotate(45 201.799 31.3867)" fill="#FFB700" fill-opacity="0.32"/>
<rect x="54.8242" y="178.362" width="11.0487" height="33.1461" rx="5.52436" transform="rotate(45 54.8242 178.362)" fill="#FFB700" fill-opacity="0.32"/>
<rect x="241" y="114.976" width="11.0487" height="33.1461" rx="5.52436" transform="rotate(90 241 114.976)" fill="#FFB700" fill-opacity="0.32"/>
<rect x="33.146" y="114.976" width="11.0487" height="33.1461" rx="5.52436" transform="rotate(90 33.146 114.976)" fill="#FFB700" fill-opacity="0.32"/>
<rect x="209.612" y="201.8" width="11.0487" height="33.1461" rx="5.52436" transform="rotate(135 209.612 201.8)" fill="#FFB700" fill-opacity="0.32"/>
<rect x="62.6372" y="54.8247" width="11.0487" height="33.1461" rx="5.52436" transform="rotate(135 62.6372 54.8247)" fill="#FFB700" fill-opacity="0.32"/>
</svg>
