<svg width="202" height="212" viewBox="0 0 202 212" fill="none" xmlns="http://www.w3.org/2000/svg">
<rect x="3.80078" width="56" height="56" rx="6.39003" fill="#34C759"/>
<rect opacity="0.24" x="66.1908" y="14" width="28" height="28" rx="6.39003" fill="#0088FF"/>
<rect opacity="0.24" x="100.581" y="14" width="28" height="28" rx="6.39003" fill="#FFCC00"/>
<rect opacity="0.24" x="134.971" y="14" width="28" height="28" rx="6.39003" fill="#FF8D28"/>
<rect opacity="0.24" x="169.361" y="14" width="28" height="28" rx="6.39003" fill="#FF383C"/>
<path d="M114.547 84.8888C114.547 84.8888 77.8308 48.8598 65.074 99.9945C65.074 99.9945 23.2988 94.2574 44.3042 132.677C44.3042 132.677 9.10381 165.656 56.2588 175.558C56.2588 175.558 44.4948 221.322 98.7589 200.961C98.7589 200.961 128.207 231.853 146.617 188.193C146.617 188.193 177.035 198.16 167.383 155.469C167.383 155.469 203.623 124.783 155.518 112.071C155.552 112.085 159.287 66.8644 114.547 84.8888Z" fill="#FFB700"/>
<path d="M90.8952 141.529C86.9567 141.12 84.0906 137.604 84.5079 133.662L86.0152 119.431C86.4257 115.506 89.9542 112.65 93.9098 113.066C97.8484 113.475 100.714 116.991 100.297 120.933L98.7898 135.164C98.3623 139.082 94.8338 141.938 90.8952 141.529Z" fill="white"/>
<path d="M117.659 144.327C113.72 143.918 110.854 140.402 111.272 136.46L112.779 122.229C113.189 118.304 116.718 115.448 120.673 115.864C124.612 116.273 127.478 119.789 127.061 123.731L125.554 137.962C125.143 141.886 121.615 144.742 117.659 144.327Z" fill="white"/>
<circle cx="182.555" cy="167.555" r="6.06452" transform="rotate(4.84094 182.555 167.555)" fill="#FFB700"/>
<circle cx="15.5144" cy="130.554" r="6.06452" transform="rotate(4.84094 15.5144 130.554)" fill="#FFB700"/>
</svg>
